<?xml version="1.0" standalone="no"?>
<!DOCTYPE svg PUBLIC "-//W3C//DTD SVG 20010904//EN"
 "http://www.w3.org/TR/2001/REC-SVG-20010904/DTD/svg10.dtd">
<svg version="1.0" xmlns="http://www.w3.org/2000/svg"
 width="218.000000pt" height="231.000000pt" viewBox="0 0 218.000000 231.000000"
 preserveAspectRatio="xMidYMid meet">

<g transform="translate(0.000000,231.000000) scale(0.100000,-0.100000)"
fill="#000000" stroke="none">
<path d="M75 2296 c-69 -30 -65 28 -65 -927 0 -775 2 -864 16 -888 27 -47 51
-55 167 -59 l107 -4 0 -110 c0 -123 12 -158 60 -183 24 -12 79 -15 320 -15
l290 0 11 23 c7 15 7 31 0 50 l-11 27 -285 0 -285 0 0 105 0 105 278 0 c310 0
316 1 310 60 l-3 35 -435 5 -435 5 0 840 0 840 709 3 c512 1 713 -1 722 -9 11
-9 14 -103 16 -493 l3 -481 33 -3 c63 -6 62 -13 62 345 l0 324 93 -3 92 -3 5
-330 5 -330 45 0 45 0 3 338 c2 287 0 342 -13 367 -25 48 -61 60 -175 60
l-100 0 0 110 c0 125 -11 159 -63 190 -31 19 -55 20 -762 20 -584 -1 -736 -3
-760 -14z"/>
<path d="M1161 1941 c3 -67 9 -124 12 -127 3 -3 58 -2 124 3 l118 8 -2 40 c-6
92 -101 181 -204 192 l-54 5 6 -121z m140 54 c34 -25 100 -128 88 -140 -2 -2
-48 -7 -102 -11 l-97 -7 0 81 c0 44 -3 88 -7 98 -6 15 -1 16 36 11 23 -3 60
-18 82 -32z"/>
<path d="M480 1820 l0 -210 60 0 60 0 0 210 0 210 -60 0 -60 0 0 -210z"/>
<path d="M1045 1991 c-168 -78 -168 -317 0 -403 47 -24 126 -28 173 -9 38 16
39 13 -26 124 -40 67 -51 97 -61 162 -26 167 -19 157 -86 126z"/>
<path d="M290 1785 l0 -175 60 0 60 0 0 175 0 175 -60 0 -60 0 0 -175z"/>
<path d="M660 1720 l0 -110 65 0 65 0 0 110 0 110 -65 0 -65 0 0 -110z"/>
<path d="M1246 1695 c32 -47 60 -85 64 -85 22 0 73 82 85 138 l7 32 -106 0
-106 0 56 -85z"/>
<path d="M256 1318 c-13 -19 -14 -25 -2 -43 13 -20 23 -20 444 -23 381 -2 432
0 446 14 20 20 20 38 0 58 -14 14 -68 16 -444 16 l-429 0 -15 -22z"/>
<path d="M256 1084 c-9 -8 -16 -22 -16 -29 0 -7 7 -21 16 -29 13 -14 62 -16
378 -16 381 0 386 1 386 45 0 44 -5 45 -386 45 -316 0 -365 -2 -378 -16z"/>
<path d="M1458 1021 c-163 -52 -281 -192 -310 -365 -48 -288 219 -561 504
-516 69 10 135 32 174 57 20 13 27 7 114 -87 51 -55 97 -100 102 -100 6 0 37
26 70 58 l60 58 -96 104 c-53 58 -94 110 -91 115 47 111 58 147 62 214 15 212
-114 399 -318 462 -78 24 -194 24 -271 0z m284 -103 c79 -36 142 -98 181 -177
29 -59 32 -74 32 -156 0 -79 -3 -97 -29 -150 -113 -230 -407 -282 -585 -104
-54 55 -87 119 -102 202 -32 175 91 362 268 407 66 16 173 6 235 -22z"/>
<path d="M1630 656 l-74 -75 -33 30 c-39 33 -72 37 -96 11 -28 -31 -20 -57 36
-109 63 -59 91 -76 116 -68 32 10 201 203 201 229 0 27 -29 56 -56 56 -11 0
-52 -33 -94 -74z"/>
<path d="M268 829 c-19 -10 -23 -45 -10 -67 7 -9 73 -12 298 -10 l289 3 3 30
c6 53 -5 55 -297 55 -162 0 -273 -5 -283 -11z"/>
</g>
</svg>
