<?xml version="1.0" standalone="no"?>
<!DOCTYPE svg PUBLIC "-//W3C//DTD SVG 20010904//EN"
 "http://www.w3.org/TR/2001/REC-SVG-20010904/DTD/svg10.dtd">
<svg version="1.0" xmlns="http://www.w3.org/2000/svg"
 width="512.000000pt" height="512.000000pt" viewBox="0 0 512.000000 512.000000"
 preserveAspectRatio="xMidYMid meet">

<g transform="translate(0.000000,512.000000) scale(0.100000,-0.100000)"
fill="#000000" stroke="none">
<path d="M3628 4373 l-3 -318 -317 -3 -318 -2 0 -210 0 -210 318 -2 317 -3 3
-317 2 -318 210 0 210 0 2 318 3 317 318 3 317 2 0 210 0 210 -317 2 -318 3
-3 318 -2 317 -210 0 -210 0 -2 -317z"/>
<path d="M960 4466 c-147 -41 -267 -162 -306 -310 -20 -76 -20 -3116 0 -3192
29 -111 118 -224 214 -273 104 -53 36 -51 1689 -51 1083 0 1548 3 1585 11 157
33 293 170 327 327 7 36 11 262 11 713 l0 659 -212 -2 -213 -3 -3 -637 -2
-638 -1490 0 -1490 0 0 1490 0 1490 638 2 637 3 3 213 2 212 -672 -1 c-506 -1
-684 -4 -718 -13z"/>
<path d="M2350 2345 l0 -855 210 0 210 0 0 855 0 855 -210 0 -210 0 0 -855z"/>
<path d="M1492 2133 l3 -638 213 -3 212 -2 0 640 0 640 -215 0 -215 0 2 -637z"/>
<path d="M3200 1920 l0 -430 213 2 212 3 0 425 0 425 -212 3 -213 2 0 -430z"/>
</g>
</svg>
