<svg width="18" height="18" viewBox="0 0 18 18" fill="none" xmlns="http://www.w3.org/2000/svg">
<path d="M13.5 15.75C13.5 14.1587 12.8679 12.6326 11.7426 11.5074C10.6174 10.3821 9.0913 9.75 7.5 9.75C5.9087 9.75 4.38258 10.3821 3.25736 11.5074C2.13214 12.6326 1.5 14.1587 1.5 15.75" stroke="#3C3952" stroke-width="2" stroke-linecap="round" stroke-linejoin="round"/>
<path d="M7.5 9.75C9.57107 9.75 11.25 8.07107 11.25 6C11.25 3.92893 9.57107 2.25 7.5 2.25C5.42893 2.25 3.75 3.92893 3.75 6C3.75 8.07107 5.42893 9.75 7.5 9.75Z" stroke="#3C3952" stroke-width="2" stroke-linecap="round" stroke-linejoin="round"/>
<path d="M16.4996 15.0004C16.4996 12.4729 14.9996 10.1254 13.4996 9.00039C13.9927 8.63047 14.3869 8.14471 14.6475 7.58609C14.9081 7.02748 15.027 6.41324 14.9936 5.79774C14.9603 5.18224 14.7757 4.58446 14.4562 4.05729C14.1368 3.53013 13.6923 3.08984 13.1621 2.77539" stroke="#3C3952" stroke-width="2" stroke-linecap="round" stroke-linejoin="round"/>
</svg>
