<svg width="20" height="21" viewBox="0 0 20 21" fill="none" xmlns="http://www.w3.org/2000/svg">
<g clip-path="url(#clip0_3829_1814)">
<path d="M12.1111 6.84635C11.5588 6.84635 11.1111 6.39864 11.1111 5.84635V1.17969C11.1111 0.627402 11.5588 0.179688 12.1111 0.179688H19C19.5523 0.179688 20 0.627403 20 1.17969V5.84636C20 6.39864 19.5523 6.84635 19 6.84635H12.1111ZM1 11.2908C0.447716 11.2908 0 10.8431 0 10.2908V1.17969C0 0.627403 0.447715 0.179688 1 0.179688H7.88889C8.44117 0.179688 8.88889 0.627403 8.88889 1.17969V10.2908C8.88889 10.8431 8.44117 11.2908 7.88889 11.2908H1ZM12.1111 20.1797C11.5588 20.1797 11.1111 19.732 11.1111 19.1797V10.0686C11.1111 9.51629 11.5588 9.06858 12.1111 9.06858H19C19.5523 9.06858 20 9.51629 20 10.0686V19.1797C20 19.732 19.5523 20.1797 19 20.1797H12.1111ZM1 20.1797C0.447716 20.1797 0 19.732 0 19.1797V14.513C0 13.9607 0.447715 13.513 1 13.513H7.88889C8.44117 13.513 8.88889 13.9607 8.88889 14.513V19.1797C8.88889 19.732 8.44117 20.1797 7.88889 20.1797H1Z" fill="#3E3B56"/>
</g>
<defs>
<clipPath id="clip0_3829_1814">
<rect width="20" height="20" fill="white" transform="translate(0 0.179688)"/>
</clipPath>
</defs>
</svg>
