<?xml version="1.0" standalone="no"?>
<!DOCTYPE svg PUBLIC "-//W3C//DTD SVG 20010904//EN"
 "http://www.w3.org/TR/2001/REC-SVG-20010904/DTD/svg10.dtd">
<svg version="1.0" xmlns="http://www.w3.org/2000/svg"
 width="211.000000pt" height="239.000000pt" viewBox="0 0 211.000000 239.000000"
 preserveAspectRatio="xMidYMid meet">

<g transform="translate(0.000000,239.000000) scale(0.100000,-0.100000)"
fill="#000000" stroke="none">
<path d="M62 2375 c-65 -28 -62 16 -62 -1040 0 -829 2 -960 15 -985 24 -46 52
-60 121 -60 l61 0 5 -101 c6 -112 19 -141 79 -171 30 -16 67 -18 302 -18 l267
0 0 55 0 55 -262 2 -263 3 -3 88 -3 87 266 0 265 0 0 60 0 60 -365 0 -365 0 0
930 0 930 435 0 435 0 0 -260 c0 -247 1 -261 20 -280 19 -19 33 -20 285 -20
l265 0 0 -245 0 -245 60 0 60 0 0 175 0 176 83 -3 82 -3 3 -172 2 -173 61 0
61 0 -4 183 c-3 202 -8 219 -71 257 -26 16 -50 20 -124 20 l-93 0 0 60 0 59
-177 173 c-98 95 -235 228 -304 296 l-126 122 -489 0 c-401 -1 -495 -3 -522
-15z m1251 -385 c85 -80 155 -148 156 -152 1 -5 -80 -8 -179 -8 l-180 0 0 171
0 171 24 -19 c14 -10 94 -83 179 -163z"/>
<path d="M358 1955 c-21 -47 -1 -55 147 -55 148 0 168 8 147 55 -11 25 -13 25
-147 25 -134 0 -136 0 -147 -25z"/>
<path d="M362 1668 c-16 -16 -15 -43 2 -57 9 -8 82 -11 241 -9 204 3 229 5
239 21 8 12 8 22 0 35 -10 15 -35 17 -240 20 -170 2 -233 -1 -242 -10z"/>
<path d="M354 1354 c-13 -53 -4 -54 391 -54 389 0 400 1 393 51 l-3 24 -387 3
-388 2 -6 -26z"/>
<path d="M368 1079 c-21 -12 -23 -40 -6 -57 9 -9 78 -12 250 -12 l238 0 0 40
0 40 -232 0 c-140 0 -240 -5 -250 -11z"/>
<path d="M1145 1016 c-39 -17 -70 -52 -90 -98 -21 -52 -22 -741 -1 -801 18
-50 42 -76 91 -98 37 -17 73 -19 430 -19 357 0 393 2 430 19 48 22 69 44 90
94 13 30 15 95 15 399 0 207 -4 378 -10 397 -11 39 -51 86 -92 107 -38 20
-818 20 -863 0z m485 -203 c43 -25 55 -57 53 -137 -2 -59 -20 -195 -39 -293
-4 -21 -10 -23 -69 -23 l-64 0 -5 33 c-3 17 -12 73 -21 122 -8 50 -15 125 -15
169 0 75 1 79 34 112 39 39 80 45 126 17z m10 -553 l0 -50 -65 0 -65 0 0 50 0
50 65 0 65 0 0 -50z"/>
<path d="M362 778 c-7 -7 -12 -19 -12 -28 0 -37 18 -40 262 -40 l238 0 0 40 0
40 -238 0 c-172 0 -241 -3 -250 -12z"/>
</g>
</svg>
