<?xml version="1.0" standalone="no"?>
<!DOCTYPE svg PUBLIC "-//W3C//DTD SVG 20010904//EN"
 "http://www.w3.org/TR/2001/REC-SVG-20010904/DTD/svg10.dtd">
<svg version="1.0" xmlns="http://www.w3.org/2000/svg"
 width="500.000000pt" height="500.000000pt" viewBox="0 0 500.000000 500.000000"
 preserveAspectRatio="xMidYMid meet">

<g transform="translate(0.000000,500.000000) scale(0.100000,-0.100000)"
fill="#000000" stroke="none">
<path d="M1445 4986 c-70 -18 -100 -31 -151 -67 -35 -24 -490 -523 -732 -804
-54 -62 -96 -143 -111 -213 -8 -38 -11 -496 -11 -1615 0 -1703 -3 -1613 56
-1734 50 -105 159 -199 282 -246 l57 -22 1084 -3 1084 -3 46 -42 c97 -91 245
-170 386 -208 111 -30 318 -32 425 -5 278 71 482 234 605 481 82 167 111 319
94 492 -12 120 -33 191 -89 308 -114 235 -288 384 -562 478 -17 6 -18 81 -18
1390 0 1325 -1 1386 -19 1455 -45 173 -180 308 -353 353 -68 18 -125 19 -1047
18 -757 -1 -987 -4 -1026 -13z m2080 -211 c51 -25 115 -89 140 -140 20 -39 20
-68 23 -1425 l2 -1386 -107 -11 c-141 -16 -208 -34 -318 -87 -440 -214 -629
-719 -441 -1175 14 -36 26 -66 26 -68 0 -2 -451 -2 -1002 -1 l-1003 3 -43 23
c-91 49 -145 125 -162 230 -14 82 -13 3067 0 3093 10 18 25 19 334 19 l324 0
53 28 c66 34 114 94 128 162 7 31 11 187 11 406 l0 354 998 -2 c971 -3 998 -4
1037 -23z m-2253 -717 c-16 -17 -38 -18 -265 -16 l-247 3 262 296 263 296 3
-280 c2 -260 1 -282 -16 -299z m2541 -2454 c40 -9 115 -36 167 -61 79 -38 107
-59 180 -132 94 -95 142 -173 182 -301 19 -63 23 -95 22 -205 0 -111 -4 -141
-26 -207 -101 -305 -364 -498 -677 -498 -124 0 -214 20 -315 69 -247 120 -399
362 -398 636 0 127 22 221 75 324 75 146 176 244 322 317 50 24 119 51 155 58
88 19 226 19 313 0z"/>
<path d="M1359 3471 c-21 -22 -29 -39 -29 -66 0 -27 8 -44 29 -66 l29 -29 802
0 c878 0 844 -2 870 59 15 38 7 75 -25 107 l-24 24 -811 0 -812 0 -29 -29z"/>
<path d="M1369 2767 c-36 -28 -50 -88 -29 -128 27 -50 12 -49 855 -49 699 0
791 2 821 16 59 28 69 113 17 154 -25 20 -43 20 -837 20 -622 -1 -815 -3 -827
-13z"/>
<path d="M1386 2055 c-40 -21 -55 -44 -56 -83 0 -43 24 -79 64 -92 112 -37
178 124 71 175 -40 19 -43 19 -79 0z"/>
<path d="M1774 2054 c-77 -38 -68 -150 14 -174 25 -8 223 -10 630 -8 l594 3
30 34 c25 28 29 39 24 69 -3 20 -17 47 -31 61 l-25 26 -603 2 c-528 3 -606 1
-633 -13z"/>
<path d="M1390 1339 c-52 -21 -74 -78 -49 -132 24 -53 10 -52 619 -55 585 -3
619 -1 655 38 29 32 25 94 -8 127 l-27 28 -583 2 c-367 1 -591 -2 -607 -8z"/>
<path d="M3360 1268 c-59 -22 -84 -82 -57 -134 9 -16 59 -72 111 -124 53 -52
96 -99 96 -105 0 -5 -48 -58 -107 -117 -100 -101 -108 -111 -108 -147 0 -71
66 -114 130 -86 16 7 75 58 129 114 l100 100 111 -108 c115 -112 143 -128 196
-109 36 12 59 49 59 93 0 33 -11 48 -112 151 l-112 114 112 114 c105 106 112
115 112 153 0 56 -37 93 -94 93 -39 0 -47 -6 -153 -112 l-113 -113 -108 108
c-111 110 -147 132 -192 115z"/>
</g>
</svg>
