<svg width="18" height="18" viewBox="0 0 18 18" fill="none" xmlns="http://www.w3.org/2000/svg">
<g clip-path="url(#clip0_381_4926)">
<path d="M12.75 7.5C9.855 7.5 7.5 9.855 7.5 12.75C7.5 15.645 9.855 18 12.75 18C15.645 18 18 15.645 18 12.75C18 9.855 15.645 7.5 12.75 7.5ZM12.75 16.5C10.6823 16.5 9 14.8177 9 12.75C9 10.6823 10.6823 9 12.75 9C14.8177 9 16.5 10.6823 16.5 12.75C16.5 14.8177 14.8177 16.5 12.75 16.5ZM13.5 13.5V15C13.5 15.414 13.164 15.75 12.75 15.75C12.336 15.75 12 15.414 12 15V13.5C12 13.086 12.336 12.75 12.75 12.75C13.164 12.75 13.5 13.086 13.5 13.5ZM13.875 10.875C13.875 11.496 13.371 12 12.75 12C12.129 12 11.625 11.496 11.625 10.875C11.625 10.254 12.129 9.75 12.75 9.75C13.371 9.75 13.875 10.254 13.875 10.875ZM6.75 16.5H3C2.17275 16.5 1.5 15.8273 1.5 15C1.5 14.1727 2.17275 13.5 3 13.5H5.25C5.664 13.5 6 13.164 6 12.75C6 12.336 5.664 12 5.25 12H4.5V1.5H11.25C12.4905 1.5 13.5 2.5095 13.5 3.75V5.25C13.5 5.664 13.836 6 14.25 6C14.664 6 15 5.664 15 5.25V3.75C15 1.68225 13.3177 0 11.25 0H3.75C1.683 0 0 1.68225 0 3.75V15C0 16.6545 1.34625 18 3 18H6.75C7.164 18 7.5 17.664 7.5 17.25C7.5 16.836 7.164 16.5 6.75 16.5ZM1.5 3.75C1.5 2.7735 2.12925 1.9485 3 1.638V12C2.451 12 1.94325 12.159 1.5 12.417V3.75Z" fill="#2D2A3D"/>
</g>
<defs>
<clipPath id="clip0_381_4926">
<rect width="18" height="18" fill="white"/>
</clipPath>
</defs>
</svg>
