<svg width="21" height="21" viewBox="0 0 21 21" fill="none" xmlns="http://www.w3.org/2000/svg">
<g clip-path="url(#clip0_3829_1879)">
<path d="M10.0495 10.6115C10.0495 13.085 10.0495 15.5726 10.0495 18.0461C10.0495 18.2723 10.106 18.3147 10.318 18.3147C12.0141 18.3147 13.7102 18.3147 15.3922 18.3147C15.8163 18.3147 15.8587 18.2723 15.8587 17.8483C15.8587 17.2405 15.8587 16.6186 15.8587 16.0108C15.8587 15.403 16.2686 15.1486 16.735 15.1203C17.1166 15.0921 17.4417 15.5161 17.4417 16.0108C17.4417 16.6186 17.4417 17.2122 17.4417 17.82C17.4417 19.0355 16.6643 19.8129 15.4488 19.8129C13.6113 19.8129 11.7739 19.8129 9.95053 19.8129C9.76678 19.8129 9.65371 19.8553 9.5265 19.9967C9.01767 20.5479 8.35336 20.7034 7.66078 20.5479C5.5689 20.0532 3.49117 19.5161 1.39929 18.9931C0.551237 18.7528 0 18.032 0 17.1415C0 12.774 0 8.42069 0 4.0532C0 3.16274 0.551237 2.42776 1.41343 2.21574C3.5053 1.69277 5.59717 1.16981 7.68905 0.646838C8.43816 0.463093 9.07421 0.646838 9.59717 1.22634C9.68198 1.32528 9.78092 1.33942 9.89399 1.33942C11.7739 1.33942 13.6396 1.33942 15.5194 1.33942C16.6502 1.33942 17.4417 2.14507 17.4558 3.27581C17.4558 3.6009 17.4558 3.92599 17.4558 4.23694C17.4558 4.57617 17.4558 4.91539 17.4558 5.25461C17.4558 5.73518 17.1166 6.08853 16.6643 6.08853C16.212 6.08853 15.8728 5.74931 15.8728 5.25461C15.8728 4.60444 15.8728 3.95426 15.8728 3.28995C15.8728 2.99313 15.788 2.90832 15.4912 2.90832C13.7527 2.90832 12 2.90832 10.2615 2.90832C10.0353 2.90832 10.0495 3.0214 10.0495 3.16274C10.0495 5.63624 10.0495 8.12387 10.0495 10.5974V10.6115Z" fill="#EA4444"/>
<path d="M17.9231 9.80585C17.6546 9.5373 17.4284 9.32529 17.2023 9.09914C16.863 8.75992 16.863 8.26521 17.174 7.95426C17.485 7.64331 17.9797 7.65744 18.3189 7.98253C18.9973 8.64684 19.6616 9.32529 20.3401 10.0037C20.7217 10.3995 20.7217 10.8377 20.3401 11.2193C19.6616 11.8977 18.9832 12.5762 18.3047 13.2546C17.9655 13.5938 17.4708 13.608 17.1599 13.2829C16.8348 12.9578 16.8489 12.4772 17.2023 12.138C17.3153 12.0249 17.4284 11.8977 17.5556 11.7846C17.6687 11.6716 17.7818 11.5585 17.909 11.4454C17.8242 11.3889 17.7252 11.4172 17.6404 11.4172C15.916 11.4172 14.2058 11.4172 12.4814 11.4172C12.0998 11.4172 11.7888 11.2051 11.6899 10.8659C11.591 10.555 11.6899 10.2016 11.9585 10.0037C12.1281 9.87652 12.3259 9.83412 12.538 9.83412C14.2341 9.83412 15.9443 9.83412 17.6404 9.83412C17.7252 9.83412 17.7959 9.83412 17.9372 9.83412L17.9231 9.80585Z" fill="#EA4444"/>
</g>
<defs>
<clipPath id="clip0_3829_1879">
<rect width="21" height="20" fill="white" transform="translate(0 0.576172)"/>
</clipPath>
</defs>
</svg>
