<?xml version="1.0" standalone="no"?>
<!DOCTYPE svg PUBLIC "-//W3C//DTD SVG 20010904//EN"
 "http://www.w3.org/TR/2001/REC-SVG-20010904/DTD/svg10.dtd">
<svg version="1.0" xmlns="http://www.w3.org/2000/svg"
 width="512.000000pt" height="512.000000pt" viewBox="0 0 512.000000 512.000000"
 preserveAspectRatio="xMidYMid meet">

<g transform="translate(0.000000,512.000000) scale(0.100000,-0.100000)"
fill="#000000" stroke="none">
<path d="M1260 4694 c-488 -210 -832 -363 -842 -375 -17 -20 -18 -70 -18 -734
0 -424 4 -755 10 -816 38 -368 180 -725 409 -1024 65 -85 223 -247 311 -318
247 -200 555 -345 865 -407 109 -22 111 -22 205 -5 52 10 146 33 209 52 62 18
115 33 116 31 1 -2 -64 -147 -146 -322 -82 -176 -149 -331 -149 -344 0 -35 30
-79 63 -93 25 -11 56 -8 191 15 149 25 161 26 173 10 6 -9 44 -72 83 -140 50
-86 81 -129 100 -139 66 -34 116 -10 157 77 16 35 83 176 147 315 l118 252 46
15 c72 25 199 14 231 -19 5 -6 70 -143 145 -305 154 -332 170 -356 240 -347
52 7 64 21 156 181 40 69 75 126 79 126 3 0 75 -12 158 -26 84 -14 164 -23
179 -20 39 10 74 53 74 93 0 23 -48 137 -145 345 -80 172 -145 316 -145 320 0
5 12 13 28 19 137 52 218 117 260 207 32 71 37 143 18 289 -9 72 -12 133 -7
150 5 15 31 73 59 129 67 134 86 201 78 277 -10 98 -35 140 -167 273 l-121
122 -34 138 c-43 171 -61 210 -130 273 -61 56 -150 91 -233 91 -25 0 -83 3
-128 7 l-83 6 0 604 c0 502 -2 609 -14 631 -13 24 -121 74 -848 385 -458 196
-842 357 -853 356 -11 -1 -391 -160 -845 -355z m1628 -145 l772 -332 0 -513
c0 -283 -2 -514 -4 -514 -2 0 -27 16 -56 35 -61 41 -135 65 -202 65 l-48 0 0
349 c0 349 0 350 -22 374 -24 26 -1183 527 -1219 527 -28 0 -1190 -500 -1217
-523 l-22 -20 0 -572 c0 -331 4 -605 10 -653 23 -183 92 -391 181 -547 205
-360 536 -619 928 -724 89 -24 128 -28 180 -16 30 6 31 5 31 -28 0 -60 37
-160 76 -205 20 -24 35 -45 33 -46 -2 -2 -48 -13 -101 -25 l-96 -21 -103 21
c-584 119 -1085 537 -1312 1095 -51 122 -88 253 -114 394 -14 83 -17 190 -20
821 l-4 726 768 331 c422 181 773 331 778 331 6 1 358 -148 783 -330z m-236
-408 l533 -228 2 -349 3 -349 -79 -57 c-100 -74 -128 -88 -173 -88 l-38 0 0
48 c0 71 -26 136 -73 185 -72 73 -99 82 -281 85 l-159 3 6 94 c8 118 -6 239
-34 305 -50 116 -212 195 -299 144 -47 -28 -60 -63 -60 -157 0 -152 -23 -224
-107 -338 l-44 -61 -24 26 c-13 14 -34 28 -47 31 -13 4 -113 5 -221 3 -189 -3
-197 -4 -219 -26 l-23 -23 0 -538 0 -539 24 -26 24 -26 214 0 c214 0 214 0
238 25 14 13 25 29 25 35 0 6 52 10 150 10 83 0 150 -2 150 -4 0 -2 -12 -30
-27 -62 -22 -47 -27 -74 -28 -134 0 -74 2 -80 73 -225 96 -199 97 -236 6 -256
-67 -15 -126 -4 -269 52 -192 74 -335 171 -486 326 -183 189 -299 409 -356
673 -16 77 -18 141 -18 649 l0 564 530 228 c292 125 535 228 542 228 6 1 251
-102 545 -228z m-459 -389 c8 -9 21 -30 27 -46 15 -40 15 -236 0 -316 -16 -84
-14 -110 10 -135 19 -18 37 -20 235 -25 l215 -5 26 -27 c20 -19 28 -39 32 -78
5 -55 -4 -70 -43 -70 -38 0 -140 -57 -177 -98 -54 -60 -74 -105 -108 -248 -32
-136 -63 -200 -103 -209 -12 -3 -121 -4 -242 -3 l-220 3 -3 320 -2 319 54 56
c175 180 266 361 266 533 0 50 8 57 33 29z m-513 -902 l0 -430 -100 0 -100 0
0 430 0 430 100 0 100 0 0 -430z m1784 266 c19 -8 76 -46 128 -84 152 -114
160 -117 380 -131 193 -13 217 -34 263 -236 41 -177 56 -204 189 -332 164
-157 167 -176 66 -383 -82 -166 -83 -174 -63 -361 l17 -155 -23 -47 c-29 -59
-48 -73 -197 -136 -66 -29 -137 -65 -157 -82 -20 -17 -67 -76 -103 -132 -135
-206 -165 -218 -382 -151 -157 48 -203 48 -361 0 -140 -43 -210 -45 -259 -10
-15 11 -62 72 -104 135 -43 63 -96 130 -118 150 -23 22 -85 56 -152 84 -225
97 -240 120 -212 344 10 82 14 156 10 184 -4 26 -37 107 -73 179 -70 144 -81
195 -50 254 8 16 63 76 122 134 59 58 116 122 126 143 11 21 33 93 50 160 37
155 44 171 85 207 43 37 81 47 227 55 65 4 140 13 165 21 27 8 93 48 157 95
61 45 124 88 140 95 39 17 88 17 129 0z m-725 -2218 c39 -58 89 -121 111 -138
49 -39 127 -70 175 -70 19 0 35 -3 35 -6 0 -7 -169 -376 -175 -382 -2 -2 -33
49 -70 113 -42 71 -77 121 -91 127 -18 9 -56 6 -155 -11 -73 -12 -133 -20
-134 -19 -2 4 228 498 231 495 1 -1 34 -50 73 -109z m1515 -139 c63 -134 113
-245 111 -247 -1 -2 -61 7 -133 20 -99 17 -136 19 -154 11 -14 -6 -48 -55 -87
-122 -35 -61 -67 -111 -71 -111 -5 0 -154 308 -177 366 -2 7 17 13 51 17 111
11 187 73 287 232 29 46 54 83 56 81 2 -1 54 -113 117 -247z"/>
<path d="M3278 2770 c-86 -15 -162 -42 -239 -81 -485 -252 -574 -905 -175
-1276 115 -107 232 -168 379 -200 101 -21 287 -13 382 17 212 67 383 211 480
405 57 114 75 183 82 315 20 371 -217 698 -579 800 -82 23 -255 34 -330 20z
m324 -187 c106 -37 181 -86 262 -174 229 -248 220 -622 -21 -865 -117 -118
-274 -184 -439 -184 -300 0 -559 210 -618 502 -30 146 -14 268 55 408 87 177
274 313 474 344 75 11 205 -3 287 -31z"/>
</g>
</svg>
