<?xml version="1.0" standalone="no"?>
<!DOCTYPE svg PUBLIC "-//W3C//DTD SVG 20010904//EN"
 "http://www.w3.org/TR/2001/REC-SVG-20010904/DTD/svg10.dtd">
<svg version="1.0" xmlns="http://www.w3.org/2000/svg"
 width="512.000000pt" height="512.000000pt" viewBox="0 0 512.000000 512.000000"
 preserveAspectRatio="xMidYMid meet">

<g transform="translate(0.000000,512.000000) scale(0.100000,-0.100000)"
fill="#000000" stroke="none">
<path d="M3604 5032 c-28 -10 -88 -45 -133 -77 -190 -139 -146 -123 -392 -143
-138 -11 -189 -31 -257 -99 -61 -61 -83 -110 -117 -258 -15 -66 -33 -131 -40
-145 -7 -14 -62 -73 -123 -131 -123 -120 -158 -177 -168 -275 -8 -78 12 -149
76 -271 75 -143 75 -142 55 -312 -21 -179 -14 -231 46 -319 44 -68 83 -97 192
-146 42 -20 77 -38 77 -40 0 -3 -66 -146 -146 -318 -80 -172 -148 -330 -151
-350 -5 -33 -1 -42 30 -73 20 -20 45 -35 59 -35 13 0 88 11 166 25 78 14 149
25 156 25 8 0 47 -57 87 -127 91 -158 114 -183 168 -183 27 0 48 7 65 23 16
13 81 143 169 332 l144 310 49 18 c57 20 149 18 204 -5 34 -14 42 -30 178
-324 85 -182 153 -318 168 -332 32 -28 92 -30 126 -2 14 10 60 80 103 155 50
87 83 135 94 135 9 0 79 -11 155 -25 77 -14 151 -25 164 -25 35 0 92 60 92 98
0 18 -59 158 -146 344 -80 172 -148 318 -151 325 -3 7 32 29 90 56 109 51 167
103 202 181 35 77 39 129 20 291 l-17 146 73 152 74 152 0 85 c0 127 -24 171
-174 318 l-119 117 -32 135 c-17 74 -40 154 -50 176 -36 83 -126 159 -215 183
-22 6 -104 15 -183 20 -159 10 -146 5 -287 112 -49 37 -112 78 -140 90 -69 31
-174 35 -241 11z m169 -156 c18 -7 82 -50 143 -95 60 -44 129 -88 154 -97 25
-8 108 -20 185 -25 168 -11 193 -19 238 -68 30 -33 39 -56 67 -172 17 -74 40
-154 51 -178 13 -29 59 -83 138 -160 171 -167 173 -184 67 -401 -36 -71 -68
-150 -71 -174 -4 -25 0 -109 10 -191 16 -137 16 -149 0 -190 -23 -61 -52 -82
-202 -149 -71 -31 -147 -71 -168 -89 -21 -17 -71 -81 -111 -143 -81 -124 -116
-158 -177 -175 -38 -10 -55 -8 -188 31 -180 52 -227 51 -409 -3 -191 -58 -221
-46 -342 132 -117 173 -118 174 -341 271 -159 69 -176 104 -151 316 9 80 14
161 10 187 -4 25 -36 105 -71 178 -107 220 -105 232 70 404 138 136 143 144
190 347 22 97 32 123 61 156 19 22 49 45 67 51 17 6 98 15 179 20 178 12 193
18 343 130 137 102 185 118 258 87z m-633 -2390 c47 -39 102 -65 169 -79 l58
-12 -90 -193 c-50 -106 -93 -190 -96 -187 -3 4 -36 57 -72 118 -49 83 -72 114
-93 122 -24 8 -120 -3 -268 -32 -27 -5 -26 -2 63 188 50 107 104 223 120 259
l30 64 73 -110 c41 -61 88 -123 106 -138z m1443 -16 c63 -135 113 -246 112
-248 -1 -1 -60 7 -131 20 -73 12 -141 19 -156 15 -21 -6 -40 -29 -85 -108 -94
-164 -75 -170 -179 54 l-91 195 46 7 c65 9 163 58 203 103 19 22 62 80 94 130
32 50 62 88 66 84 4 -4 58 -117 121 -252z"/>
<path d="M3595 4613 c-122 -16 -273 -74 -377 -144 -414 -280 -523 -827 -247
-1239 93 -139 206 -236 361 -310 132 -63 220 -82 378 -82 158 0 246 19 378 82
185 88 315 212 411 392 67 124 93 223 98 374 8 198 -28 340 -129 512 -50 86
-218 248 -310 300 -171 96 -380 139 -563 115z m300 -178 c33 -8 96 -33 140
-55 150 -74 260 -186 336 -345 128 -265 77 -587 -127 -804 -291 -309 -745
-318 -1045 -21 -143 141 -207 285 -216 485 -5 91 -2 125 16 195 73 293 300
507 593 560 70 12 228 5 303 -15z"/>
<path d="M3852 3825 c-155 -140 -284 -255 -288 -255 -4 0 -56 47 -114 105 -91
89 -112 105 -139 105 -43 0 -81 -38 -81 -81 0 -28 18 -51 142 -176 79 -79 153
-146 165 -149 12 -3 31 -3 43 1 12 4 166 137 341 296 311 283 319 291 319 328
0 47 -33 81 -77 81 -27 0 -72 -37 -311 -255z"/>
<path d="M1464 3006 c-95 -18 -135 -32 -225 -77 -219 -109 -372 -305 -430
-547 -28 -116 -23 -311 11 -417 59 -186 176 -344 332 -449 l47 -32 -83 -27
c-308 -100 -608 -330 -790 -602 -115 -172 -208 -403 -240 -594 -21 -125 -20
-138 9 -166 l24 -25 1486 0 1486 0 24 25 c31 30 32 71 5 205 -109 535 -500
980 -1015 1155 -44 15 -81 28 -83 29 -1 2 22 19 52 40 123 84 241 235 295 375
42 111 55 182 55 306 -1 174 -40 301 -139 450 -109 165 -268 279 -468 336 -93
26 -258 33 -353 15z m331 -176 c361 -111 559 -502 432 -854 -136 -374 -562
-543 -920 -364 -117 59 -229 172 -286 288 -60 124 -74 192 -69 325 8 181 64
310 194 441 127 129 306 198 489 189 51 -2 120 -13 160 -25z m74 -1479 c280
-55 511 -179 716 -385 150 -151 246 -300 318 -491 24 -63 67 -215 67 -237 0
-4 -614 -8 -1364 -8 l-1364 0 15 68 c87 390 357 739 712 921 286 146 593 191
900 132z"/>
</g>
</svg>
