<svg width="20" height="21" viewBox="0 0 20 21" fill="none" xmlns="http://www.w3.org/2000/svg">
<g clip-path="url(#clip0_3829_1856)">
<g clip-path="url(#clip1_3829_1856)">
<path d="M17.5007 10.5762C17.5005 10.1164 17.4586 9.65757 17.3757 9.20534L19.9115 7.74284L17.4115 3.40951L14.8748 4.87534C14.1745 4.27611 13.3696 3.81112 12.5007 3.50367V0.576172H7.50068V3.50367C6.63172 3.81112 5.82689 4.27611 5.12651 4.87534L2.58984 3.40951L0.0898438 7.74284L2.62568 9.20534C2.4591 10.1116 2.4591 11.0407 2.62568 11.947L0.0898438 13.4095L2.58984 17.7428L5.12651 16.2778C5.82695 16.8768 6.63179 17.3415 7.50068 17.6487V20.5762H12.5007V17.6487C13.3696 17.3412 14.1745 16.8762 14.8748 16.277L17.4115 17.7428L19.9115 13.4095L17.3757 11.947C17.4586 11.4948 17.5005 11.036 17.5007 10.5762ZM12.5007 10.5762C12.5007 11.0706 12.3541 11.554 12.0794 11.9651C11.8046 12.3762 11.4142 12.6967 10.9574 12.8859C10.5006 13.0751 9.9979 13.1246 9.51295 13.0281C9.028 12.9317 8.58254 12.6936 8.23291 12.3439C7.88328 11.9943 7.64518 11.5489 7.54871 11.0639C7.45225 10.5789 7.50176 10.0763 7.69098 9.61946C7.8802 9.16265 8.20063 8.7722 8.61175 8.4975C9.02287 8.22279 9.50622 8.07617 10.0007 8.07617C10.6637 8.07617 11.2996 8.33956 11.7684 8.8084C12.2373 9.27725 12.5007 9.91313 12.5007 10.5762Z" fill="#3E3B56"/>
</g>
</g>
<defs>
<clipPath id="clip0_3829_1856">
<rect width="20" height="20" fill="white" transform="translate(0 0.576172)"/>
</clipPath>
<clipPath id="clip1_3829_1856">
<rect width="20" height="20" fill="white" transform="translate(0 0.576172)"/>
</clipPath>
</defs>
</svg>
