<svg width="18" height="18" viewBox="0 0 18 18" fill="none" xmlns="http://www.w3.org/2000/svg">
<g clip-path="url(#clip0_1862_12477)">
<path d="M12.7507 1.875C12.7507 0.83925 13.59 0 14.6257 0C15.6615 0 16.5007 0.83925 16.5007 1.875C16.5007 2.91075 15.6615 3.75 14.6257 3.75C13.59 3.75 12.7507 2.91075 12.7507 1.875ZM7.12575 3.75C7.428 3.75 7.70925 3.672 7.962 3.54525C7.67625 3.051 7.50075 2.48625 7.50075 1.875C7.50075 1.26375 7.67625 0.699 7.96125 0.20475C7.7085 0.078 7.428 0 7.12575 0C6.09 0 5.25075 0.83925 5.25075 1.875C5.25075 2.91075 6.09 3.75 7.12575 3.75ZM10.8758 3.75C11.178 3.75 11.4593 3.672 11.712 3.54525C11.4263 3.051 11.2508 2.48625 11.2508 1.875C11.2508 1.26375 11.4263 0.699 11.7113 0.20475C11.4585 0.078 11.178 0 10.8758 0C9.84 0 9.00075 0.83925 9.00075 1.875C9.00075 2.91075 9.84 3.75 10.8758 3.75ZM2.25075 9H1.50075V6.75C1.50075 6.33675 1.8375 6 2.25075 6H2.3265C2.4405 5.44275 2.688 4.938 3.0195 4.5H2.25C1.0095 4.5 0 5.5095 0 6.75V10.5H0.75V14.25H2.25L2.25075 9ZM3.37575 3.75C3.678 3.75 3.95925 3.672 4.212 3.54525C3.92625 3.051 3.75075 2.48625 3.75075 1.875C3.75075 1.26375 3.92625 0.699 4.21125 0.20475C3.9585 0.078 3.678 0 3.37575 0C2.34 0 1.50075 0.83925 1.50075 1.875C1.50075 2.91075 2.34 3.75 3.37575 3.75ZM6.00075 9.75H5.25075V6.75C5.25075 6.33675 5.5875 6 6.00075 6H6.0765C6.1905 5.44275 6.438 4.938 6.7695 4.5H6C4.7595 4.5 3.75 5.5095 3.75 6.75V11.25H4.5V15.75H6V9.75H6.00075ZM9.75075 10.5H9.00075V6.75C9.00075 6.33675 9.3375 6 9.75075 6H9.8265C9.9405 5.44275 10.188 4.938 10.5195 4.5H9.75C8.5095 4.5 7.5 5.5095 7.5 6.75V12H8.25V17.25H9.75V10.5H9.75075ZM18.0007 6.75V12.75H16.5007V18H15.0007V12.75H14.2507V18H12.7507V12.75H11.2508V6.75C11.2508 5.5095 12.2602 4.5 13.5007 4.5H15.7507C16.9912 4.5 18.0007 5.5095 18.0007 6.75ZM16.5007 6.75C16.5007 6.33675 16.164 6 15.7507 6H13.5007C13.0875 6 12.7507 6.33675 12.7507 6.75V11.25H16.5007V6.75Z" fill="#37344B"/>
</g>
<defs>
<clipPath id="clip0_1862_12477">
<rect width="18" height="18" fill="white"/>
</clipPath>
</defs>
</svg>
