<svg width="18" height="18" viewBox="0 0 18 18" fill="none" xmlns="http://www.w3.org/2000/svg">
<path d="M6.75 9C9.23175 9 11.25 6.98175 11.25 4.5C11.25 2.01825 9.23175 0 6.75 0C4.26825 0 2.25 2.01825 2.25 4.5C2.25 6.98175 4.26825 9 6.75 9ZM6.75 1.5C8.4045 1.5 9.75 2.8455 9.75 4.5C9.75 6.1545 8.4045 7.5 6.75 7.5C5.0955 7.5 3.75 6.1545 3.75 4.5C3.75 2.8455 5.0955 1.5 6.75 1.5ZM3.75 10.5H8.25V12H3.75C2.5095 12 1.5 13.0095 1.5 14.25V18H0V14.25C0 12.1823 1.68225 10.5 3.75 10.5ZM16.125 8.25H11.625C10.5907 8.25 9.75 9.0915 9.75 10.125V18H18V10.125C18 9.0915 17.1593 8.25 16.125 8.25ZM16.5 16.5H11.25V10.125C11.25 9.918 11.4187 9.75 11.625 9.75H16.125C16.3312 9.75 16.5 9.918 16.5 10.125V16.5ZM11.9992 11.2477H15.7493V12.7477H11.9992V11.2477ZM11.9992 13.5H15.7493V15H11.9992V13.5Z" fill="#343147"/>
</svg>
