<?xml version="1.0" encoding="UTF-8"?>
<svg xmlns="http://www.w3.org/2000/svg" id="Layer_1" data-name="Layer 1" viewBox="0 0 24 24">
  <path fill="white" d="M18,8c-2.206,0-4-1.794-4-4S15.794,0,18,0s4,1.794,4,4-1.794,4-4,4Zm-6,7c-2.206,0-4-1.794-4-4s1.794-4,4-4,4,1.794,4,4-1.794,4-4,4Zm-6-7c-2.206,0-4-1.794-4-4S3.794,0,6,0s4,1.794,4,4-1.794,4-4,4Zm17,14h-5c0-3.309-2.691-6-6-6s-6,2.691-6,6H1c-.553,0-1,.447-1,1s.447,1,1,1H23c.553,0,1-.447,1-1s-.447-1-1-1ZM1,17H5.764c.558-.695,1.23-1.292,1.986-1.769-1.081-1.086-1.75-2.581-1.75-4.231,0-.34,.035-.671,.09-.995-.03,0-.059-.005-.09-.005-3.309,0-6,2.691-6,6,0,.553,.447,1,1,1Zm23-1c0-3.309-2.691-6-6-6-.03,0-.059,.004-.09,.005,.055,.325,.09,.656,.09,.995,0,1.65-.669,3.145-1.75,4.231,.756,.477,1.428,1.074,1.986,1.769h4.764c.553,0,1-.447,1-1Z"/>
</svg>
