<svg width="24" height="33" viewBox="0 0 24 33" fill="none" xmlns="http://www.w3.org/2000/svg">
<g clip-path="url(#clip0_5701_20137)">
<path d="M10.1738 20.8064L13.826 32.8717L16.826 28.636L21.7825 30.433L17.8695 18.7527L10.1738 20.8064Z" fill="#CD3414"/>
<g opacity="0.7">
<path d="M12.2294 24.1695L11.8442 24.2852L14.2857 32.1592L14.6708 32.0436L12.2294 24.1695Z" fill="#FFCE45"/>
</g>
<g opacity="0.7">
<path d="M17.8006 20.6185L17.4165 20.7375L20.4165 30.1074L20.8006 29.9884L17.8006 20.6185Z" fill="#FFCE45"/>
</g>
<path d="M5.73921 19.5227L1.82617 30.6896L7.174 28.8926L9.91313 32.9999L14.4783 21.063L5.73921 19.5227Z" fill="#FE5629"/>
<g opacity="0.7">
<path d="M6.72169 19.0765L3.06934 30.115L3.45223 30.2377L7.10458 19.1992L6.72169 19.0765Z" fill="#FFCE45"/>
</g>
<g opacity="0.7">
<path d="M13.2452 20.3555L9.0708 32.0356L9.45069 32.1671L13.6251 20.487L13.2452 20.3555Z" fill="#FFCE45"/>
</g>
<path d="M0 11.6931C0 11.1535 1.33673 10.7133 1.41192 10.1941C1.48898 9.66195 0.332685 8.87081 0.483188 8.36562C0.636309 7.85162 2.0449 7.8005 2.26817 7.32017C2.49392 6.8345 1.61263 5.7531 1.90402 5.30782C2.19718 4.85985 3.56302 5.20178 3.9164 4.8008C4.27046 4.39906 3.7332 3.11712 4.14146 2.76871C4.54893 2.42096 5.76223 3.12574 6.21747 2.83726C6.66996 2.55052 6.52013 1.17138 7.01367 0.949233C7.50178 0.729526 8.46322 1.74236 8.98553 1.59168C9.49891 1.44358 9.7519 0.0790245 10.2927 0.00318713C10.8203 -0.0708035 11.4516 1.16804 12 1.16804C12.5484 1.16804 13.1797 -0.0708035 13.7074 0.00319163C14.2481 0.0790245 14.5011 1.44359 15.0145 1.59169C15.5368 1.74237 16.4983 0.729549 16.9864 0.94926C17.4799 1.17141 17.3301 2.55055 17.7826 2.8373C18.2378 3.12578 19.4511 2.42101 19.8586 2.76876C20.2669 3.11717 19.7296 4.39911 20.0836 4.80085C20.437 5.20183 21.8029 4.8599 22.096 5.30788C22.3874 5.75315 21.5061 6.83455 21.7319 7.32022C21.9551 7.80055 23.3637 7.85166 23.5168 8.36565C23.6673 8.87084 22.511 9.66197 22.5881 10.1941C22.6633 10.7133 24 11.1535 24 11.6931C24 12.2328 22.6633 12.6729 22.5881 13.1922C22.511 13.7243 23.6673 14.5154 23.5168 15.0206C23.3637 15.5346 21.9551 15.5857 21.7318 16.0661C21.5061 16.5517 22.3874 17.6331 22.096 18.0784C21.8028 18.5264 20.437 18.1845 20.0836 18.5854C19.7295 18.9872 20.2668 20.2691 19.8585 20.6175C19.4511 20.9653 18.2378 20.2605 17.7825 20.549C17.33 20.8357 17.4799 22.2149 16.9863 22.437C16.4982 22.6567 15.5368 21.6439 15.0145 21.7946C14.5011 21.9427 14.2481 23.3072 13.7073 23.3831C13.1797 23.4571 12.5484 22.2182 12 22.2182C11.4516 22.2182 10.8203 23.4571 10.2926 23.3831C9.75188 23.3072 9.49889 21.9427 8.9855 21.7946C8.46318 21.6439 7.50174 22.6567 7.01362 22.437C6.52008 22.2148 6.66991 20.8357 6.21742 20.549C5.76218 20.2605 4.54888 20.9652 4.1414 20.6175C3.73314 20.2691 4.27042 18.9871 3.91636 18.5854C3.56298 18.1844 2.19714 18.5263 1.90398 18.0784C1.6126 17.6331 2.4939 16.5517 2.26815 16.066C2.04488 15.5857 0.6363 15.5346 0.483179 15.0206C0.33268 14.5154 1.48898 13.7243 1.41192 13.1921C1.33673 12.6729 0 12.2328 0 11.6931Z" fill="#FCAB28"/>
<path d="M11.9998 21.1913C17.3306 21.1913 21.652 16.9388 21.652 11.6931C21.652 6.44733 17.3306 2.19482 11.9998 2.19482C6.66908 2.19482 2.34766 6.44733 2.34766 11.6931C2.34766 16.9388 6.66908 21.1913 11.9998 21.1913Z" fill="#FFCE45"/>
<path d="M12.0002 21.384C9.36973 21.384 6.89672 20.376 5.03669 18.5456C3.17669 16.7153 2.15234 14.2817 2.15234 11.6932C2.15234 9.10472 3.17669 6.67116 5.03669 4.84079C6.89672 3.01046 9.36973 2.00244 12.0002 2.00244C14.6306 2.00244 17.1036 3.01046 18.9636 4.84079C20.8236 6.67116 21.848 9.10472 21.848 11.6932C21.848 14.2817 20.8236 16.7153 18.9636 18.5456C17.1036 20.376 14.6306 21.384 12.0002 21.384ZM12.0002 2.3875C6.78582 2.3875 2.54364 6.56203 2.54364 11.6932C2.54364 16.8244 6.78582 20.9989 12.0002 20.9989C17.2145 20.9989 21.4567 16.8244 21.4567 11.6932C21.4567 6.56203 17.2145 2.3875 12.0002 2.3875Z" fill="#FCAB28"/>
<path d="M12 18.496C15.8179 18.496 18.913 15.4503 18.913 11.6932C18.913 7.9361 15.8179 4.89038 12 4.89038C8.18199 4.89038 5.08691 7.9361 5.08691 11.6932C5.08691 15.4503 8.18199 18.496 12 18.496Z" fill="#FFD733"/>
<path d="M17.7391 8.99787C17.7391 8.56466 17.6962 8.14151 17.6175 7.73081C16.3629 6.01146 14.3151 4.89038 12 4.89038C8.18196 4.89038 5.08691 7.93611 5.08691 11.6932C5.08691 12.1264 5.12983 12.5495 5.20849 12.9602C6.4631 14.6796 8.51092 15.8007 10.8261 15.8007C14.6441 15.8007 17.7391 12.755 17.7391 8.99787Z" fill="#FFE266"/>
<path d="M12.0001 18.694C8.07724 18.694 4.88574 15.5534 4.88574 11.6931C4.88574 7.83275 8.07724 4.69214 12.0001 4.69214C15.923 4.69214 19.1145 7.83275 19.1145 11.6931C19.1145 15.5534 15.923 18.694 12.0001 18.694ZM12.0001 5.08841C8.29929 5.08841 5.28844 8.05125 5.28844 11.6931C5.28844 15.3349 8.29929 18.2977 12.0001 18.2977C15.701 18.2977 18.7118 15.3349 18.7118 11.6931C18.7118 8.05125 15.701 5.08841 12.0001 5.08841Z" fill="#FCAB28"/>
<path d="M7.2234 6.03452L7.83245 4.52051L8.40253 6.05549L9.46987 6.65482L8.38123 7.21582L7.77218 9.14105L7.20209 7.19484L6.13477 6.59551L7.2234 6.03452Z" fill="white"/>
</g>
<defs>
<clipPath id="clip0_5701_20137">
<rect width="24" height="33" fill="white"/>
</clipPath>
</defs>
</svg>
