<svg width="21" height="21" viewBox="0 0 21 21" fill="none" xmlns="http://www.w3.org/2000/svg">
<path d="M7 10.5H5.25C4.28487 10.5 3.5 11.2849 3.5 12.25V14C3.5 14.9651 4.28487 15.75 5.25 15.75H7C7.96513 15.75 8.75 14.9651 8.75 14V12.25C8.75 11.2849 7.96513 10.5 7 10.5ZM5.25 14V12.25H7V14H5.25ZM16.625 1.75H15.75V0.875C15.75 0.392 15.3589 0 14.875 0C14.3911 0 14 0.392 14 0.875V1.75H7V0.875C7 0.392 6.60887 0 6.125 0C5.64113 0 5.25 0.392 5.25 0.875V1.75H4.375C1.96263 1.75 0 3.71263 0 6.125V16.625C0 19.0374 1.96263 21 4.375 21H16.625C19.0374 21 21 19.0374 21 16.625V6.125C21 3.71263 19.0374 1.75 16.625 1.75ZM4.375 3.5H16.625C18.0723 3.5 19.25 4.67775 19.25 6.125V7H1.75V6.125C1.75 4.67775 2.92775 3.5 4.375 3.5ZM16.625 19.25H4.375C2.92775 19.25 1.75 18.0723 1.75 16.625V8.75H19.25V16.625C19.25 18.0723 18.0723 19.25 16.625 19.25Z" fill="#3C3952" fill-opacity="0.87"/>
</svg>
