<svg width="24" height="24" viewBox="0 0 24 24" fill="none" xmlns="http://www.w3.org/2000/svg">
<path d="M19.6746 2.75778C18.4076 1.70343 16.9359 0.922939 15.3524 0.465476C13.7688 0.00801355 12.1077 -0.116501 10.4736 0.0997771C7.45065 0.492495 4.69047 2.02095 2.75351 4.37479C0.816545 6.72862 -0.152009 9.7314 0.0445118 12.7734C0.241033 15.8154 1.5879 18.6686 3.81162 20.7536C6.03535 22.8387 8.96925 23.9993 12.0176 23.9998H18.9996C20.3252 23.9982 21.596 23.4709 22.5334 22.5336C23.4707 21.5962 23.998 20.3254 23.9996 18.9998V11.3088V11.2458C23.8937 9.61122 23.4556 8.01543 22.712 6.55599C21.9683 5.09655 20.9348 3.80414 19.6746 2.75778ZM7.99959 6.99978H11.9996C12.2648 6.99978 12.5192 7.10513 12.7067 7.29267C12.8942 7.48021 12.9996 7.73456 12.9996 7.99978C12.9996 8.26499 12.8942 8.51935 12.7067 8.70688C12.5192 8.89442 12.2648 8.99978 11.9996 8.99978H7.99959C7.73437 8.99978 7.48002 8.89442 7.29248 8.70688C7.10495 8.51935 6.99959 8.26499 6.99959 7.99978C6.99959 7.73456 7.10495 7.48021 7.29248 7.29267C7.48002 7.10513 7.73437 6.99978 7.99959 6.99978ZM15.9996 16.9998H7.99959C7.73437 16.9998 7.48002 16.8944 7.29248 16.7069C7.10495 16.5194 6.99959 16.265 6.99959 15.9998C6.99959 15.7346 7.10495 15.4802 7.29248 15.2927C7.48002 15.1051 7.73437 14.9998 7.99959 14.9998H15.9996C16.2648 14.9998 16.5192 15.1051 16.7067 15.2927C16.8942 15.4802 16.9996 15.7346 16.9996 15.9998C16.9996 16.265 16.8942 16.5194 16.7067 16.7069C16.5192 16.8944 16.2648 16.9998 15.9996 16.9998ZM15.9996 12.9998H7.99959C7.73437 12.9998 7.48002 12.8944 7.29248 12.7069C7.10495 12.5193 6.99959 12.265 6.99959 11.9998C6.99959 11.7346 7.10495 11.4802 7.29248 11.2927C7.48002 11.1051 7.73437 10.9998 7.99959 10.9998H15.9996C16.2648 10.9998 16.5192 11.1051 16.7067 11.2927C16.8942 11.4802 16.9996 11.7346 16.9996 11.9998C16.9996 12.265 16.8942 12.5193 16.7067 12.7069C16.5192 12.8944 16.2648 12.9998 15.9996 12.9998Z" fill="#8E8E93"/>
</svg>
