<?xml version="1.0" standalone="no"?>
<!DOCTYPE svg PUBLIC "-//W3C//DTD SVG 20010904//EN"
 "http://www.w3.org/TR/2001/REC-SVG-20010904/DTD/svg10.dtd">
<svg version="1.0" xmlns="http://www.w3.org/2000/svg"
 width="512.000000pt" height="512.000000pt" viewBox="0 0 512.000000 512.000000"
 preserveAspectRatio="xMidYMid meet">

<g transform="translate(0.000000,512.000000) scale(0.100000,-0.100000)"
fill="#000000" stroke="none">
<path d="M1362 5099 c-136 -17 -274 -85 -342 -167 -51 -61 -98 -169 -115 -266
-22 -130 -23 -2801 0 -2845 33 -65 133 -51 150 21 3 13 6 649 8 1413 2 1284 3
1394 19 1440 38 111 101 175 214 218 l59 22 1535 3 c1017 2 1557 -1 1602 -8
165 -25 264 -115 297 -268 8 -38 11 -505 11 -1647 l0 -1594 -432 -3 c-374 -4
-441 -7 -493 -22 -177 -51 -274 -158 -321 -356 -15 -64 -18 -134 -22 -467 l-4
-393 -925 -2 -925 -3 -24 -28 c-31 -36 -31 -77 1 -111 l24 -26 989 0 989 0 41
23 c22 12 294 268 604 568 310 300 579 560 599 577 78 68 72 -94 71 1781 -1
1656 -1 1677 -21 1754 -52 198 -166 314 -366 374 -56 17 -153 18 -1610 19
-852 1 -1579 -2 -1613 -7z m3258 -3952 c-58 -56 -289 -279 -514 -496 l-408
-395 5 350 c5 367 10 413 54 499 39 75 104 118 203 135 25 4 207 8 405 9 l360
1 -105 -103z"/>
<path d="M2655 3386 c-13 -13 -26 -39 -30 -57 -3 -19 -5 -379 -3 -801 l3 -768
27 -26 26 -27 257 1 c253 0 257 0 281 23 l24 22 0 804 0 804 -25 24 -24 25
-256 0 -256 0 -24 -24z m415 -825 c0 -638 -1 -679 -17 -682 -10 -2 -72 -4
-138 -4 l-120 0 -3 683 -2 682 140 0 140 0 0 -679z"/>
<path d="M1909 2824 l-24 -26 -3 -496 c-3 -513 0 -562 37 -581 10 -6 134 -11
275 -13 l258 -3 24 28 24 28 0 520 0 520 -25 24 -24 25 -259 0 -259 0 -24 -26z
m421 -544 l0 -400 -140 0 -140 0 0 400 0 400 140 0 140 0 0 -400z"/>
<path d="M3420 2699 c-50 -18 -50 -18 -51 -496 l-1 -446 26 -26 26 -26 258 3
257 3 25 25 25 24 3 423 c2 286 0 434 -8 459 -19 64 -36 68 -302 67 -128 0
-244 -5 -258 -10z m395 -494 l0 -330 -137 -1 -138 0 0 333 0 334 138 -3 137
-3 0 -330z"/>
<path d="M802 1645 c-290 -63 -523 -276 -618 -565 -26 -79 -28 -97 -28 -245
-1 -155 0 -163 32 -255 48 -139 100 -220 211 -330 78 -78 113 -105 186 -142
151 -77 215 -92 390 -93 130 0 160 3 225 23 156 50 262 115 372 230 92 96 147
187 189 312 41 122 51 290 25 418 -65 321 -312 573 -635 646 -85 20 -261 20
-349 1z m363 -180 c102 -35 178 -80 250 -147 89 -83 137 -153 178 -261 29 -78
31 -89 31 -222 0 -151 -5 -175 -68 -305 -44 -92 -185 -233 -280 -278 -377
-182 -785 -10 -932 393 -26 71 -26 308 0 380 38 105 81 179 148 250 102 110
202 169 338 201 76 19 270 12 335 -11z"/>
<path d="M621 1239 c-34 -13 -50 -39 -51 -78 0 -31 15 -49 141 -178 l141 -144
-141 -144 c-133 -135 -141 -145 -141 -182 0 -50 32 -83 81 -83 31 0 48 14 174
140 77 77 144 140 150 140 5 0 72 -63 148 -140 129 -131 141 -140 176 -140 50
0 81 32 81 84 0 36 -10 48 -142 182 l-142 145 142 142 c129 130 142 145 142
178 0 57 -56 98 -107 78 -15 -6 -89 -71 -163 -145 l-136 -134 -119 121 c-160
161 -185 178 -234 158z"/>
</g>
</svg>
