<svg width="16" height="14" viewBox="0 0 16 14" fill="none" xmlns="http://www.w3.org/2000/svg">
<path d="M2 1.75V12.25H14V3.25H7.68935L6.18934 1.75H2ZM8.31065 1.75H14.75C15.1642 1.75 15.5 2.08579 15.5 2.5V13C15.5 13.4142 15.1642 13.75 14.75 13.75H1.25C0.83579 13.75 0.5 13.4142 0.5 13V1C0.5 0.58579 0.83579 0.25 1.25 0.25H6.81065L8.31065 1.75ZM6.5 5.875C6.5 6.4963 5.99632 7 5.375 7C4.75368 7 4.25 6.4963 4.25 5.875C4.25 5.25368 4.75368 4.75 5.375 4.75C5.99632 4.75 6.5 5.25368 6.5 5.875ZM12.5 10.75L9.5 6.25L4.25 10.75H12.5Z" fill="#8F8F8F"/>
</svg>
