<svg width="15" height="17" viewBox="0 0 15 17" fill="none" xmlns="http://www.w3.org/2000/svg">
<path d="M7.5 0C5.51168 0.00206202 3.60541 0.747485 2.19938 2.07274C0.793353 3.398 0.00238669 5.19487 0 7.06916C0 8.88957 1.49534 11.7385 4.44469 15.5366C4.79581 15.99 5.25553 16.3589 5.78645 16.6132C6.31736 16.8675 6.90447 17 7.5 17C8.09552 17 8.68264 16.8675 9.21355 16.6132C9.74447 16.3589 10.2042 15.99 10.5553 15.5366C13.5047 11.7385 15 8.88957 15 7.06916C14.9976 5.19487 14.2066 3.398 12.8006 2.07274C11.3946 0.747485 9.48832 0.00206202 7.5 0ZM7.5 9.8869C6.90553 9.8869 6.3244 9.72073 5.83012 9.4094C5.33583 9.09807 4.95058 8.65556 4.72308 8.13784C4.49559 7.62012 4.43607 7.05043 4.55204 6.50082C4.66802 5.95121 4.95428 5.44635 5.37464 5.05011C5.795 4.65386 6.33056 4.38401 6.91361 4.27468C7.49667 4.16536 8.10101 4.22147 8.65024 4.43592C9.19946 4.65037 9.66888 5.01352 9.99916 5.47946C10.3294 5.9454 10.5057 6.49319 10.5057 7.05357C10.5057 7.80502 10.189 8.52569 9.62536 9.05704C9.06168 9.58839 8.29716 9.8869 7.5 9.8869Z" fill="#FB923D"/>
</svg>
