<svg width="34" height="34" viewBox="0 0 34 34" fill="none" xmlns="http://www.w3.org/2000/svg">
<path d="M0.666992 7.47206V26.5276C0.669153 28.3319 1.38686 30.0617 2.66268 31.3375C3.9385 32.6133 5.66827 33.331 7.47255 33.3332H26.5281C28.3324 33.331 30.0622 32.6133 31.338 31.3375C32.6138 30.0617 33.3315 28.3319 33.3337 26.5276V7.47206C33.3315 5.66778 32.6138 3.93801 31.338 2.66219C30.0622 1.38637 28.3324 0.668665 26.5281 0.666504L7.47255 0.666504C5.66827 0.668665 3.9385 1.38637 2.66268 2.66219C1.38686 3.93801 0.669153 5.66778 0.666992 7.47206ZM22.4448 16.9998C22.4458 17.9962 22.0816 18.9584 21.4212 19.7044C21.0251 20.1495 20.6399 20.5714 20.3636 20.8477L16.5199 24.7582C16.3968 24.8941 16.2475 25.0038 16.081 25.0806C15.9145 25.1574 15.7342 25.1998 15.5509 25.2051C15.3676 25.2105 15.1851 25.1788 15.0144 25.1119C14.8436 25.045 14.6882 24.9443 14.5573 24.8159C14.4265 24.6874 14.3229 24.5338 14.2529 24.3644C14.1829 24.1949 14.1478 24.013 14.1498 23.8296C14.1519 23.6463 14.1909 23.4652 14.2646 23.2973C14.3384 23.1294 14.4453 22.9782 14.5789 22.8526L18.4295 18.9326C18.684 18.6767 19.0297 18.2956 19.3823 17.8995C19.6016 17.6509 19.7226 17.3307 19.7226 16.9992C19.7226 16.6676 19.6016 16.3474 19.3823 16.0988C19.0311 15.7041 18.6854 15.3229 18.439 15.0752L14.5789 11.1471C14.4453 11.0215 14.3384 10.8702 14.2646 10.7023C14.1909 10.5344 14.1519 10.3534 14.1498 10.17C14.1478 9.98667 14.1829 9.80479 14.2529 9.63531C14.3229 9.46584 14.4265 9.31226 14.5573 9.18379C14.6882 9.05533 14.8436 8.95463 15.0144 8.88774C15.1851 8.82085 15.3676 8.78914 15.5509 8.79453C15.7342 8.79992 15.9145 8.84229 16.081 8.9191C16.2475 8.99591 16.3968 9.10557 16.5199 9.2415L20.3704 13.1601C20.6427 13.4324 21.0238 13.8502 21.4171 14.2939C22.0797 15.0395 22.4454 16.0024 22.4448 16.9998Z" fill="#7A69EE"/>
</svg>
