<svg width="34" height="34" viewBox="0 0 34 34" fill="none" xmlns="http://www.w3.org/2000/svg">
<path d="M33.334 7.47206V26.5276C33.3318 28.3319 32.6141 30.0617 31.3383 31.3375C30.0625 32.6133 28.3327 33.331 26.5284 33.3332H7.47287C5.66859 33.331 3.93883 32.6133 2.663 31.3375C1.38718 30.0617 0.669479 28.3319 0.667316 26.5276V7.47206C0.669479 5.66778 1.38718 3.93801 2.663 2.66219C3.93883 1.38637 5.66859 0.668665 7.47287 0.666504L26.5284 0.666504C28.3327 0.668665 30.0625 1.38637 31.3383 2.66219C32.6141 3.93801 33.3318 5.66778 33.334 7.47206ZM11.5562 16.9998C11.5552 17.9962 11.9193 18.9584 12.5798 19.7044C12.9758 20.1495 13.361 20.5714 13.6373 20.8477L17.4811 24.7582C17.6042 24.8941 17.7535 25.0038 17.92 25.0806C18.0865 25.1574 18.2668 25.1998 18.4501 25.2051C18.6334 25.2105 18.8159 25.1788 18.9866 25.1119C19.1574 25.045 19.3128 24.9443 19.4437 24.8159C19.5745 24.6874 19.6781 24.5338 19.7481 24.3644C19.8181 24.1949 19.8532 24.013 19.8511 23.8296C19.8491 23.6463 19.8101 23.4652 19.7363 23.2973C19.6626 23.1294 19.5557 22.9782 19.4221 22.8526L15.5715 18.9326C15.317 18.6767 14.9712 18.2956 14.6187 17.8995C14.3994 17.6509 14.2784 17.3307 14.2784 16.9992C14.2784 16.6676 14.3994 16.3474 14.6187 16.0988C14.9699 15.7041 15.3156 15.323 15.562 15.0752L19.4221 11.1471C19.5557 11.0215 19.6626 10.8702 19.7363 10.7023C19.8101 10.5344 19.8491 10.3534 19.8511 10.17C19.8532 9.98667 19.8181 9.80479 19.7481 9.63531C19.6781 9.46584 19.5745 9.31226 19.4437 9.18379C19.3128 9.05533 19.1574 8.95463 18.9866 8.88774C18.8159 8.82085 18.6334 8.78914 18.4501 8.79453C18.2668 8.79992 18.0865 8.84229 17.92 8.9191C17.7535 8.99591 17.6042 9.10557 17.4811 9.2415L13.6305 13.1601C13.3583 13.4324 12.9772 13.8502 12.5838 14.2939C11.9213 15.0395 11.5556 16.0024 11.5562 16.9998Z" fill="#7A69EE"/>
</svg>
