<svg width="21" height="21" viewBox="0 0 21 21" fill="none" xmlns="http://www.w3.org/2000/svg">
<path d="M10.8063 19.7415C11.9799 19.743 13.1422 19.5126 14.2265 19.0634C15.3108 18.6143 16.2956 17.9553 17.1244 17.1244C17.9553 16.2956 18.6143 15.3108 19.0634 14.2265C19.5126 13.1422 19.743 11.9799 19.7415 10.8063C19.743 9.63268 19.5125 8.47035 19.0634 7.38609C18.6143 6.30182 17.9553 5.317 17.1244 4.48822C16.2956 3.65726 15.3108 2.99827 14.2265 2.54914C13.1422 2.10001 11.9799 1.86958 10.8063 1.8711C9.63268 1.86961 8.47035 2.10004 7.38609 2.54918C6.30182 2.99831 5.317 3.65728 4.48822 4.48822C3.65728 5.317 2.99831 6.30182 2.54918 7.38609C2.10004 8.47035 1.86961 9.63268 1.8711 10.8063C1.86958 11.9799 2.10001 13.1422 2.54914 14.2265C2.99827 15.3108 3.65726 16.2956 4.48822 17.1244C5.317 17.9553 6.30182 18.6143 7.38609 19.0634C8.47035 19.5125 9.63268 19.743 10.8063 19.7415V19.7415Z" stroke="#3C3952" stroke-opacity="0.87" stroke-width="2" stroke-linejoin="round"/>
<path d="M10.8075 12.8728V11.0857C11.3377 11.0857 11.8559 10.9285 12.2967 10.634C12.7376 10.3394 13.0811 9.92078 13.284 9.43097C13.4869 8.94116 13.54 8.40219 13.4366 7.88222C13.3331 7.36224 13.0778 6.88461 12.7029 6.50973C12.3281 6.13484 11.8504 5.87955 11.3305 5.77612C10.8105 5.67269 10.2715 5.72577 9.7817 5.92866C9.2919 6.13154 8.87325 6.47511 8.57871 6.91593C8.28417 7.35674 8.12695 7.875 8.12695 8.40517" stroke="#3C3952" stroke-opacity="0.87" stroke-width="2" stroke-linecap="round" stroke-linejoin="round"/>
<path fill-rule="evenodd" clip-rule="evenodd" d="M10.8056 16.4472C11.0426 16.4472 11.2699 16.3531 11.4374 16.1855C11.605 16.0179 11.6991 15.7907 11.6991 15.5537C11.6991 15.3167 11.605 15.0894 11.4374 14.9219C11.2699 14.7543 11.0426 14.6602 10.8056 14.6602C10.5687 14.6602 10.3414 14.7543 10.1738 14.9219C10.0062 15.0894 9.91211 15.3167 9.91211 15.5537C9.91211 15.7907 10.0062 16.0179 10.1738 16.1855C10.3414 16.3531 10.5687 16.4472 10.8056 16.4472Z" fill="#3C3952" fill-opacity="0.87"/>
</svg>
