<?xml version="1.0" standalone="no"?>
<!DOCTYPE svg PUBLIC "-//W3C//DTD SVG 20010904//EN"
 "http://www.w3.org/TR/2001/REC-SVG-20010904/DTD/svg10.dtd">
<svg version="1.0" xmlns="http://www.w3.org/2000/svg"
 width="200.000000pt" height="200.000000pt" viewBox="0 0 200.000000 200.000000"
 preserveAspectRatio="xMidYMid meet">

<g transform="translate(0.000000,200.000000) scale(0.100000,-0.100000)"
fill="#000000" stroke="none">
<path d="M749 1932 c-58 -24 -81 -40 -142 -99 -84 -82 -121 -183 -107 -294 6
-43 4 -55 -12 -71 -10 -10 -18 -31 -18 -47 0 -41 35 -149 56 -172 36 -40 64
-130 64 -211 l0 -76 68 -62 c37 -34 91 -81 119 -103 50 -39 51 -42 31 -50 -37
-13 -59 -39 -88 -100 l-28 -58 -39 73 c-22 40 -57 113 -79 161 -30 68 -43 87
-56 83 -33 -8 -229 -131 -320 -201 -127 -97 -133 -109 -133 -270 l0 -130 538
-3 538 -2 -6 57 c-9 73 9 172 43 243 25 53 121 160 172 192 24 15 24 15 -70
71 l-95 55 -77 -159 c-43 -87 -81 -159 -85 -159 -5 0 -16 20 -27 45 -22 54
-69 105 -97 105 -14 0 9 25 73 79 147 124 146 123 151 216 4 85 29 164 65 210
47 60 68 195 34 216 -17 10 -18 18 -9 63 12 69 4 173 -18 220 -10 21 -32 47
-49 57 -17 10 -47 34 -67 53 -60 57 -114 79 -204 83 -61 2 -91 -1 -126 -15z"/>
<path d="M1513 750 c-108 -23 -206 -98 -252 -195 -35 -73 -41 -200 -12 -277
39 -102 24 -110 299 165 l246 246 -64 30 c-72 33 -152 44 -217 31z"/>
<path d="M1622 367 c-133 -133 -242 -246 -242 -250 0 -5 26 -20 58 -35 49 -23
70 -27 147 -27 77 1 98 5 147 29 73 35 139 101 174 174 24 49 28 70 29 147 0
77 -4 98 -27 148 -15 31 -31 57 -35 57 -4 0 -117 -109 -251 -243z"/>
</g>
</svg>
