<svg width="26" height="24" viewBox="0 0 26 24" fill="none" xmlns="http://www.w3.org/2000/svg">
<path d="M18.2862 9.70333C18.1104 9.70333 17.9346 9.6475 17.7862 9.53667C17.5029 9.325 17.3854 8.95667 17.4912 8.61917L18.2754 6.10583L16.2946 4.49417C16.0279 4.26833 15.9304 3.9 16.0512 3.57167C16.1721 3.24333 16.4837 3.02583 16.8329 3.02583H19.3337L20.2187 0.5425C20.3404 0.216667 20.6521 0 20.9996 0C21.3471 0 21.6587 0.216667 21.7804 0.5425L22.6654 3.02583H25.1662C25.5162 3.02583 25.8287 3.245 25.9487 3.57333C26.0687 3.90167 25.9704 4.27083 25.7029 4.49667L23.7312 6.1025L24.5471 8.58583C24.6587 8.92167 24.5454 9.29167 24.2646 9.5075C23.9837 9.72333 23.5971 9.73833 23.3012 9.54583L21.0062 8.05167L18.7496 9.56167C18.6096 9.65583 18.4479 9.70333 18.2862 9.70333Z" fill="#C666F4"/>
<circle cx="12" cy="10" r="4" fill="#C666F4"/>
<path fill-rule="evenodd" clip-rule="evenodd" d="M18.9468 20.2532C18.9621 20.3587 18.9053 20.4613 18.8068 20.5021C17.6053 21 15.8358 21 13.0005 21H11.0005C8.16525 21 6.39579 21 5.19426 20.5022C5.09579 20.4614 5.03894 20.3587 5.05422 20.2532C5.48314 17.2919 8.42957 15 12.0005 15C15.5715 15 18.5179 17.2919 18.9468 20.2532Z" fill="#C666F4"/>
</svg>
