<svg width="21" height="21" viewBox="0 0 21 21" fill="none" xmlns="http://www.w3.org/2000/svg">
<path d="M20.7443 19.507L15.5214 14.2842C16.9447 12.5434 17.6445 10.3222 17.476 8.08003C17.3076 5.83782 16.2837 3.74613 14.6163 2.23762C12.9489 0.72911 10.7654 -0.0808056 8.5176 -0.0246027C6.26977 0.0316001 4.12953 0.949622 2.53958 2.53958C0.949622 4.12953 0.0316001 6.26977 -0.0246027 8.5176C-0.0808056 10.7654 0.72911 12.9489 2.23762 14.6163C3.74613 16.2837 5.83782 17.3076 8.08003 17.476C10.3222 17.6445 12.5434 16.9447 14.2842 15.5214L19.507 20.7443C19.6721 20.9037 19.8931 20.9919 20.1225 20.9899C20.3519 20.9879 20.5714 20.8959 20.7336 20.7336C20.8959 20.5714 20.9879 20.3519 20.9899 20.1225C20.9919 19.8931 20.9037 19.6721 20.7443 19.507ZM8.75066 15.7507C7.36619 15.7507 6.01282 15.3401 4.86167 14.571C3.71053 13.8018 2.81332 12.7085 2.28351 11.4294C1.75369 10.1504 1.61507 8.7429 1.88517 7.38503C2.15526 6.02716 2.82195 4.77988 3.80092 3.80092C4.77988 2.82195 6.02716 2.15526 7.38503 1.88517C8.7429 1.61507 10.1504 1.75369 11.4294 2.28351C12.7085 2.81332 13.8018 3.71053 14.571 4.86167C15.3401 6.01282 15.7507 7.36619 15.7507 8.75066C15.7486 10.6065 15.0104 12.3858 13.6981 13.6981C12.3858 15.0104 10.6065 15.7486 8.75066 15.7507Z" fill="#3C3952" fill-opacity="0.87"/>
</svg>
