<svg width="11" height="6" viewBox="0 0 11 6" fill="none" xmlns="http://www.w3.org/2000/svg">
<path d="M9.91558 0.181995C9.79069 0.0606315 9.64265 0 9.47159 0L0.631492 0C0.460367 0 0.312429 0.0606315 0.187436 0.181995C0.0624443 0.303493 2.30347e-09 0.447136 3.15893e-09 0.613194C4.01422e-09 0.779217 0.0624443 0.922861 0.187436 1.04426L4.6075 5.33601C4.73263 5.45737 4.88057 5.51814 5.05156 5.51814C5.22255 5.51814 5.37062 5.45737 5.49551 5.33601L9.91558 1.04422C10.0404 0.922861 10.1031 0.779217 10.1031 0.61316C10.1031 0.447136 10.0404 0.303493 9.91558 0.181995Z" fill="#292735"/>
</svg>
