<svg width="30" height="34" viewBox="0 0 30 34" fill="none" xmlns="http://www.w3.org/2000/svg">
<path d="M9.30565 22.8225C9.30565 23.4883 8.72482 24.0408 8.04482 24.0408H6.86898V21.6042H8.05898C8.73898 21.6042 9.31982 22.1567 9.31982 22.8225H9.30565ZM19.2507 11.3333H28.5157C28.0198 10.0442 27.269 8.85417 26.2632 7.84833L21.3331 2.90417C20.3273 1.89833 19.1373 1.1475 17.8482 0.651667V9.91667C17.8482 10.6958 18.4857 11.3333 19.2648 11.3333H19.2507ZM15.1282 21.6042H13.9382V26.5625H15.1282C15.8082 26.5625 16.389 26.01 16.389 25.3442V22.8225C16.389 22.1567 15.8082 21.6042 15.1282 21.6042ZM29.1673 14.8608V26.9167C29.1673 30.8267 25.994 34 22.084 34H7.91732C4.00732 34 0.833984 30.8267 0.833984 26.9167V7.08333C0.833984 3.17333 4.00732 0 7.91732 0H14.3065C14.5332 0 14.7598 0.0141667 15.0007 0.0283333V9.91667C15.0007 12.2542 16.9132 14.1667 19.2507 14.1667H29.139C29.1531 14.3933 29.1673 14.62 29.1673 14.8608ZM11.0765 22.8225C11.0765 21.1792 9.71648 19.8333 8.04482 19.8333H6.50065C5.72148 19.8333 5.08398 20.4708 5.08398 21.25V27.54C5.08398 28.0358 5.48065 28.4183 5.96232 28.4183C6.44398 28.4183 6.84065 28.0217 6.84065 27.54V25.8117H8.03065C9.70232 25.8117 11.0623 24.4658 11.0623 22.8225H11.0765ZM18.1598 22.8225C18.1598 21.1792 16.7998 19.8333 15.1282 19.8333H13.584C12.8048 19.8333 12.1673 20.4708 12.1673 21.25V27.54C12.1673 28.0358 12.564 28.3333 13.0457 28.3333C13.5273 28.3333 15.114 28.3333 15.114 28.3333C16.7857 28.3333 18.1457 26.9875 18.1457 25.3442V22.8225H18.1598ZM24.9457 20.7258C24.9457 20.23 24.549 19.8475 24.0673 19.8475H20.7948C20.299 19.8475 19.9165 20.2442 19.9165 20.7258V27.54C19.9165 28.0358 20.3132 28.4183 20.7948 28.4183C21.2765 28.4183 21.6731 28.0217 21.6731 27.54V24.99H23.4298C23.9257 24.99 24.3081 24.5933 24.3081 24.1117C24.3081 23.63 23.9115 23.2333 23.4298 23.2333H21.6731V21.6183H24.0673C24.5632 21.6183 24.9457 21.2217 24.9457 20.74V20.7258Z" fill="#E5252A"/>
</svg>
