<svg width="12" height="11" viewBox="0 0 12 11" fill="none" xmlns="http://www.w3.org/2000/svg">
<path d="M11 6.5H9.5V0.5H11C11.2761 0.5 11.5 0.72386 11.5 1V6C11.5 6.27615 11.2761 6.5 11 6.5ZM8.35355 7.14645L5.1533 10.3467C5.06535 10.4346 4.92607 10.4445 4.82654 10.3699L4.40025 10.0502C4.1579 9.86845 4.04869 9.5587 4.12343 9.26515L4.70009 7H1.5C0.947715 7 0.5 6.5523 0.5 6V4.94785C0.5 4.8172 0.52559 4.68785 0.57532 4.5671L2.1225 0.809625C2.19965 0.622275 2.38224 0.5 2.58485 0.5H8C8.27615 0.5 8.5 0.72386 8.5 1V6.7929C8.5 6.9255 8.4473 7.0527 8.35355 7.14645Z" fill="white"/>
</svg>
