<svg width="12" height="11" viewBox="0 0 12 11" fill="none" xmlns="http://www.w3.org/2000/svg">
<path d="M1 4.49999H2.5V10.5H1C0.72386 10.5 0.5 10.2762 0.5 10V4.99998C0.5 4.72385 0.72386 4.49999 1 4.49999ZM3.64645 3.85354L6.8467 0.653305C6.93465 0.56533 7.07395 0.555435 7.17345 0.63008L7.59975 0.9498C7.8421 1.13156 7.9513 1.44126 7.87655 1.73483L7.2999 3.99998H10.5C11.0523 3.99998 11.5 4.4477 11.5 4.99998V6.05215C11.5 6.1828 11.4744 6.31215 11.4247 6.4329L9.8775 10.1903C9.80035 10.3777 9.61775 10.5 9.41515 10.5H4C3.72386 10.5 3.5 10.2762 3.5 10V4.20709C3.5 4.07448 3.55268 3.94731 3.64645 3.85354Z" fill="white"/>
</svg>
