 <svg width="12" height="12" viewBox="0 0 12 12" fill="none" xmlns="http://www.w3.org/2000/svg">
<g clip-path="url(#clip0_3847_10007)">
<path d="M9.25 0.5H2.75C2.0209 0.500794 1.32189 0.79078 0.806333 1.30633C0.29078 1.82189 0.000794085 2.5209 0 3.25L0 8.75C0.000794085 9.4791 0.29078 10.1781 0.806333 10.6937C1.32189 11.2092 2.0209 11.4992 2.75 11.5H9.25C9.9791 11.4992 10.6781 11.2092 11.1937 10.6937C11.7092 10.1781 11.9992 9.4791 12 8.75V3.25C11.9992 2.5209 11.7092 1.82189 11.1937 1.30633C10.6781 0.79078 9.9791 0.500794 9.25 0.5ZM9.25 2C9.55323 2.00101 9.84555 2.11327 10.0715 2.3155L6.8215 5.5655C6.60076 5.77633 6.30725 5.89398 6.002 5.89398C5.69675 5.89398 5.40324 5.77633 5.1825 5.5655L1.9325 2.3155C2.15742 2.11419 2.44815 2.00199 2.75 2H9.25ZM9.25 10H2.75C2.41848 10 2.10054 9.8683 1.86612 9.63388C1.6317 9.39946 1.5 9.08152 1.5 8.75V4.0085L4.1195 6.628C4.36638 6.87499 4.6595 7.07091 4.98212 7.20459C5.30474 7.33826 5.65053 7.40706 5.99975 7.40706C6.34897 7.40706 6.69476 7.33826 7.01738 7.20459C7.34 7.07091 7.63312 6.87499 7.88 6.628L10.5 4.0085V8.75C10.5 9.08152 10.3683 9.39946 10.1339 9.63388C9.89946 9.8683 9.58152 10 9.25 10Z" fill="#606061"/>
</g>
<defs>
<clipPath id="clip0_3847_10007">
<rect width="12" height="12" fill="white"/>
</clipPath>
</defs>
</svg>
