<svg width="26" height="26" viewBox="0 0 26 26" fill="none" xmlns="http://www.w3.org/2000/svg">
<g clip-path="url(#clip0_3847_10040)">
<path d="M3.61661 24.0421C-1.2737 23.3804 -0.0877539 15.5203 3.93828 13.7173C5.88318 12.8461 12.0499 12.7751 14.115 13.3143C14.9449 13.5318 16.6574 14.3984 17.1313 15.1059C17.6877 15.9382 17.0237 15.7871 16.5304 16.0069C16.3037 16.1087 16.0656 16.2244 15.8653 16.372C15.3341 16.7647 12.4814 19.6095 12.1632 20.1109C11.64 20.9375 11.5805 21.8934 11.9732 22.7829C12.0407 22.9374 12.8809 24.0421 12.3166 24.0421H3.61661Z" fill="#87A1FF"/>
<path d="M8.68483 0.946444C15.5922 -0.0495214 16.4816 9.99828 10.1295 10.6336C3.72813 11.2736 2.87874 1.78328 8.68483 0.946444Z" fill="#87A1FF"/>
<path d="M21.0489 17.6509C21.2035 17.6258 21.2756 17.6349 21.4232 17.6796C21.8434 17.8055 24.3068 20.2462 24.6846 20.7213C25.0051 21.1242 25.3096 21.4207 25.1104 21.9485C24.9513 22.3698 22.5817 24.7555 22.1089 25.131C21.6923 25.463 21.4278 25.7412 20.8806 25.558C18.6393 24.8047 22.9904 22.1133 22.9 21.597C22.4192 20.8781 20.3003 19.3738 20.2671 18.6023C20.2465 18.1169 20.5727 17.7288 21.0489 17.6509Z" fill="#87A1FF"/>
<path d="M17.3786 17.6489C18.0059 17.5344 18.5863 18.2774 18.3894 18.8956C18.2119 19.4542 15.7588 21.3638 15.8137 21.6797C16.2396 22.3643 18.1833 23.7426 18.3871 24.3791C18.6252 25.1221 17.9979 25.8147 17.2893 25.5972C17.0569 25.5262 14.0783 22.583 13.8001 22.212C13.5838 21.9247 13.4441 21.7931 13.5632 21.4038C13.6341 21.1714 16.5772 18.1927 16.9481 17.9145C17.0832 17.8126 17.2011 17.6798 17.3786 17.6478V17.6489Z" fill="#87A1FF"/>
</g>
<defs>
<clipPath id="clip0_3847_10040">
<rect width="24.7606" height="24.7606" fill="white" transform="translate(0.410156 0.877563)"/>
</clipPath>
</defs>
</svg>
