<svg width="24" height="24" viewBox="0 0 24 24" fill="none" xmlns="http://www.w3.org/2000/svg">
<g clip-path="url(#clip0_3847_10058)">
<path d="M10.9843 8.296C11.0733 8.656 10.7723 9 10.3933 9H5.60735C5.22835 9 4.92735 8.656 5.01635 8.296C5.34035 6.979 6.55335 6 8.00035 6C9.44735 6 10.6603 6.979 10.9843 8.296ZM0.0153482 7.296C-0.0716518 7.656 0.223348 8 0.593348 8H3.00035V7.5C3.00035 6.52 3.40735 5.636 4.05835 5H2.93235C1.51835 5 0.332348 5.979 0.0153482 7.296ZM15.4073 8C15.7773 8 16.0723 7.656 15.9853 7.296C15.6683 5.979 14.4823 5 13.0683 5H11.9423C12.5933 5.636 13.0003 6.52 13.0003 7.5V8H15.4073ZM3.00035 4C4.10535 4 5.00035 3.105 5.00035 2C5.00035 0.895 4.10535 0 3.00035 0C1.89535 0 1.00035 0.895 1.00035 2C1.00035 3.105 1.89535 4 3.00035 4ZM8.00035 5C9.10535 5 10.0003 4.105 10.0003 3C10.0003 1.895 9.10535 1 8.00035 1C6.89535 1 6.00035 1.895 6.00035 3C6.00035 4.105 6.89535 5 8.00035 5ZM13.0003 4C14.1053 4 15.0003 3.105 15.0003 2C15.0003 0.895 14.1053 0 13.0003 0C11.8953 0 11.0003 0.895 11.0003 2C11.0003 3.105 11.8953 4 13.0003 4ZM23.3413 12.345L15.6393 20.754C13.7453 22.822 11.0693 24 8.26535 24H4.00335C1.79435 24 0.00334824 22.209 0.00334824 20V15C0.00334824 12.791 1.79435 11 4.00335 11H11.7903C13.1643 11 14.2503 12.26 13.9543 13.685C13.7613 14.611 12.9503 15.283 12.0143 15.417L7.85235 16C7.30535 16.078 6.92535 16.585 7.00435 17.131C7.08235 17.678 7.58935 18.057 8.13535 17.979L12.3873 17.383C14.4493 17.089 16.0043 15.296 16.0043 13.213C16.0043 12.994 15.9723 12.784 15.9393 12.575L19.4803 8.838C19.9353 8.338 20.5773 8.035 21.2743 8.003C21.9663 7.969 22.6374 8.212 23.1523 8.681C24.2043 9.639 24.2903 11.282 23.3413 12.345Z" fill="#FB923D"/>
</g>
<defs>
<clipPath id="clip0_3847_10058">
<rect width="24" height="24" fill="white"/>
</clipPath>
</defs>
</svg>
