<svg width="26" height="26" viewBox="0 0 26 26" fill="none" xmlns="http://www.w3.org/2000/svg">
<g clip-path="url(#clip0_3847_10021)">
<path d="M4.53692 15.3212H11.7588V17.3846H13.8222V15.3212H21.044V17.3846H23.1074V13.2578H13.8222V11.5947C14.7486 11.3833 15.5709 10.8942 16.195 10.2205L17.6394 11.0521L18.669 9.26416L17.2278 8.43364C17.3609 8.00137 17.4331 7.54329 17.4331 7.06768C17.4331 6.59207 17.3609 6.134 17.2278 5.70172L18.669 4.87121L17.6394 3.08329L16.195 3.91483C15.5698 3.24011 14.7486 2.75109 13.8222 2.54062V0.877533H11.7588V2.54062C10.8323 2.75212 10.01 3.24114 9.38588 3.91483L7.94151 3.08329L6.91188 4.87121L8.35315 5.70172C8.22006 6.134 8.14785 6.59207 8.14785 7.06768C8.14785 7.54329 8.22006 8.00137 8.35315 8.43364L6.91188 9.26416L7.94151 11.0521L9.38588 10.2205C10.0111 10.8953 10.8323 11.3843 11.7588 11.5947V13.2578H2.47354V17.3846H4.53692V15.3212ZM11.2429 7.06768C11.2429 6.21448 11.9373 5.52015 12.7905 5.52015C13.6437 5.52015 14.338 6.21448 14.338 7.06768C14.338 7.92089 13.6437 8.61522 12.7905 8.61522C11.9373 8.61522 11.2429 7.92089 11.2429 7.06768ZM9.69538 25.6381H15.8855V19.448H9.69538V25.6381ZM18.9806 19.448V25.6381H25.1708V19.448H18.9806ZM0.410156 25.6381H6.60031V19.448H0.410156V25.6381Z" fill="#3CD856"/>
</g>
<defs>
<clipPath id="clip0_3847_10021">
<rect width="24.7606" height="24.7606" fill="white" transform="translate(0.410156 0.87793)"/>
</clipPath>
</defs>
</svg>
