<svg width="26" height="26" viewBox="0 0 26 26" fill="none" xmlns="http://www.w3.org/2000/svg">
<g clip-path="url(#clip0_3847_10027)">
<path d="M10.387 5.52015C10.387 4.09538 11.5415 2.94092 12.9662 2.94092C14.391 2.94092 15.5455 4.09538 15.5455 5.52015C15.5455 6.94491 14.391 8.09938 12.9662 8.09938C11.5415 8.09938 10.387 6.94491 10.387 5.52015ZM18.1247 13.2578V16.3529C18.1247 17.8736 17.289 19.1901 16.0613 19.9061V24.6064C16.0613 25.1759 15.5991 25.6381 15.0296 25.6381C14.4601 25.6381 13.9979 25.1759 13.9979 24.6064V20.4797H11.9345V24.6064C11.9345 25.1759 11.4724 25.6381 10.9029 25.6381C10.3334 25.6381 9.87117 25.1759 9.87117 24.6064V19.9061C8.64345 19.1901 7.80778 17.8736 7.80778 16.3529V13.2578C7.80778 10.9819 9.65864 9.13107 11.9345 9.13107H13.9979C16.2738 9.13107 18.1247 10.9819 18.1247 13.2578ZM5.7444 6.03599C7.16916 6.03599 8.32363 4.88153 8.32363 3.45676C8.32363 2.032 7.16916 0.877533 5.7444 0.877533C4.31963 0.877533 3.16517 2.032 3.16517 3.45676C3.16517 4.88153 4.31963 6.03599 5.7444 6.03599ZM20.1881 6.03599C21.6129 6.03599 22.7673 4.88153 22.7673 3.45676C22.7673 2.032 21.6129 0.877533 20.1881 0.877533C18.7633 0.877533 17.6089 2.032 17.6089 3.45676C17.6089 4.88153 18.7633 6.03599 20.1881 6.03599ZM21.2198 7.06768H19.1564C18.3888 7.06768 17.679 7.29156 17.0631 7.65781C17.0332 7.71559 17.0022 7.77336 16.9702 7.8301C18.8871 8.88346 20.1891 10.9211 20.1891 13.2578V16.3529C20.1891 17.0648 20.0571 17.7612 19.8208 18.4163H21.2208V22.5431C21.2208 23.1126 21.683 23.5748 22.2525 23.5748C22.822 23.5748 23.2842 23.1126 23.2842 22.5431V17.8427C24.5119 17.1267 25.3476 15.8102 25.3476 14.2895V11.1945C25.3476 8.91854 23.4957 7.06768 21.2198 7.06768ZM5.7444 16.3529V13.2578C5.7444 10.9211 7.04639 8.88346 8.96328 7.8301C8.93026 7.77336 8.90034 7.71662 8.87042 7.65781C8.2545 7.29156 7.54367 7.06768 6.77712 7.06768H4.71374C2.43679 7.06768 0.585938 8.91854 0.585938 11.1945V14.2895C0.585938 15.8102 1.42161 17.1267 2.64932 17.8427V22.5431C2.64932 23.1126 3.11152 23.5748 3.68101 23.5748C4.25051 23.5748 4.71271 23.1126 4.71271 22.5431V18.4163H6.11271C5.87645 17.7612 5.7444 17.0648 5.7444 16.3529Z" fill="#988DFF"/>
</g>
<defs>
<clipPath id="clip0_3847_10027">
<rect width="24.7606" height="24.7606" fill="white" transform="translate(0.585938 0.87793)"/>
</clipPath>
</defs>
</svg>
