<svg width="24" height="24" viewBox="0 0 24 24" fill="none" xmlns="http://www.w3.org/2000/svg">
<g clip-path="url(#clip0_1686_15840)">
<path d="M11.2756 0.00208912C16.174 -0.115962 19.2815 5.27387 16.6352 9.44618C14.2959 13.1344 8.9489 13.2483 6.43937 9.67599C3.64169 5.69439 6.43588 0.118045 11.2756 0.00208912Z" fill="#34C759"/>
<path d="M1.59888 22.8887C0.834233 22.786 0.121907 22.0064 0.0563259 21.2436C-0.164837 18.6752 0.201442 17.1796 2.30981 15.6526C4.97702 13.7212 9.56005 13.0227 12.777 13.2658C12.8928 13.2748 13.0003 13.3098 13.114 13.3209C10.9903 15.5877 10.5661 18.9378 12.1324 21.6495C12.3898 22.0944 12.7163 22.4716 13.01 22.8887H1.59888Z" fill="#34C759"/>
<path d="M17.7512 12.2892C21.7572 12.0056 24.8416 15.8188 23.793 19.6985C22.5044 24.4666 16.1235 25.5682 13.3321 21.493C10.7521 17.7258 13.2288 12.6098 17.7505 12.2892H17.7512ZM20.1498 15.946C20.0458 15.9676 19.9321 16.0487 19.8498 16.1157L17.5161 18.4383C17.3647 18.4767 16.4821 17.7209 16.1856 17.6427C15.2298 17.3912 14.6912 18.4879 15.4468 19.1145C15.7558 19.3709 16.8616 20.1274 17.2042 20.2831C17.6437 20.4829 17.9151 20.3495 18.2591 20.0659C18.9477 19.4973 20.3284 18.1149 20.8963 17.4255C21.1907 17.0685 21.354 16.6997 21.0519 16.2736C20.844 15.9802 20.4993 15.8733 20.1498 15.946Z" fill="#34C759"/>
</g>
<defs>
<clipPath id="clip0_1686_15840">
<rect width="24" height="24" fill="white"/>
</clipPath>
</defs>
</svg>
