<svg width="38" height="38" viewBox="0 0 38 38" fill="none" xmlns="http://www.w3.org/2000/svg">
<g clip-path="url(#clip0_1686_15989)">
<path d="M28.5 19C23.2528 19 19 23.2528 19 28.5C19 33.7472 23.2528 38 28.5 38C33.7472 38 38 33.7472 38 28.5C38 23.2528 33.7472 19 28.5 19ZM30.0833 22.1667V25.3333H26.9167V22.1667H30.0833ZM30.0833 34.8333H26.9167V26.9167H30.0833V34.8333ZM3.16667 28.5C1.99817 28.4984 0.86925 28.9291 0 29.7113V4.75C0 2.12642 2.12642 0 4.75 0H6.33333V28.5H3.16667ZM15.8333 28.5H9.5V0H28.5C30.2496 0 31.6667 1.41708 31.6667 3.16667V16.2323C30.6549 15.9711 29.5941 15.8333 28.5 15.8333C21.5048 15.8333 15.8333 21.5048 15.8333 28.5ZM20.1226 38H3.16667C1.41708 38 0 36.5829 0 34.8333C0 33.0838 1.41708 31.6667 3.16667 31.6667H16.2323C16.8736 34.1572 18.2527 36.3502 20.1226 38Z" fill="#FB923D"/>
</g>
<defs>
<clipPath id="clip0_1686_15989">
<rect width="38" height="38" fill="white"/>
</clipPath>
</defs>
</svg>
