<svg width="24" height="24" viewBox="0 0 24 24" fill="none" xmlns="http://www.w3.org/2000/svg">
<g clip-path="url(#clip0_1686_15362)">
<path d="M4 14H11V16H13V14H20V16H22V12H13V10.388C13.898 10.183 14.695 9.709 15.3 9.056L16.7 9.862L17.698 8.129L16.301 7.324C16.43 6.905 16.5 6.461 16.5 6C16.5 5.539 16.43 5.095 16.301 4.676L17.698 3.871L16.7 2.138L15.3 2.944C14.694 2.29 13.898 1.816 13 1.612V0H11V1.612C10.102 1.817 9.305 2.291 8.7 2.944L7.3 2.138L6.302 3.871L7.699 4.676C7.57 5.095 7.5 5.539 7.5 6C7.5 6.461 7.57 6.905 7.699 7.324L6.302 8.129L7.3 9.862L8.7 9.056C9.306 9.71 10.102 10.184 11 10.388V12H2V16H4V14ZM10.5 6C10.5 5.173 11.173 4.5 12 4.5C12.827 4.5 13.5 5.173 13.5 6C13.5 6.827 12.827 7.5 12 7.5C11.173 7.5 10.5 6.827 10.5 6ZM9 24H15V18H9V24ZM18 18V24H24V18H18ZM0 24H6V18H0V24Z" fill="white"/>
</g>
<defs>
<clipPath id="clip0_1686_15362">
<rect width="24" height="24" fill="white"/>
</clipPath>
</defs>
</svg>
