<svg width="24" height="24" viewBox="0 0 24 24" fill="none" xmlns="http://www.w3.org/2000/svg">
<g clip-path="url(#clip0_1686_15355)">
<path d="M7 23.25C7 23.664 6.638 24 6.192 24H0.808C0.362 24 0 23.664 0 23.25C0 21.455 1.567 20 3.5 20C5.433 20 7 21.455 7 23.25ZM20.5 20C18.567 20 17 21.455 17 23.25C17 23.664 17.362 24 17.808 24H23.193C23.639 24 24.001 23.664 24.001 23.25C24.001 21.455 22.433 20 20.5 20ZM12.25 20H11.75C9.955 20 8.5 21.455 8.5 23.25C8.5 23.664 8.836 24 9.25 24H14.75C15.164 24 15.5 23.664 15.5 23.25C15.5 21.455 14.045 20 12.25 20ZM20.5 19C21.881 19 23 17.881 23 16.5C23 15.119 21.881 14 20.5 14C19.119 14 18 15.119 18 16.5C18 17.881 19.119 19 20.5 19ZM14.5 16.5C14.5 15.119 13.381 14 12 14C10.619 14 9.5 15.119 9.5 16.5C9.5 17.881 10.619 19 12 19C13.381 19 14.5 17.881 14.5 16.5ZM1 16.5C1 17.881 2.119 19 3.5 19C4.881 19 6 17.881 6 16.5C6 15.119 4.881 14 3.5 14C2.119 14 1 15.119 1 16.5ZM16.329 10.5C16.074 10.5 15.816 10.436 15.58 10.299L14.904 9.90899C14.492 10.261 14.02 10.538 13.5 10.724V11.5C13.5 12.328 12.828 13 12 13C11.172 13 10.5 12.328 10.5 11.5V10.724C9.979 10.538 9.508 10.261 9.096 9.90899L8.42 10.299C8.184 10.436 7.926 10.5 7.671 10.5C7.152 10.5 6.649 10.231 6.371 9.74999C5.957 9.03199 6.203 8.11499 6.92 7.70099L7.583 7.31799C7.534 7.05199 7.5 6.77999 7.5 6.49899C7.5 6.21799 7.534 5.94699 7.583 5.67999L6.92 5.29699C6.203 4.88299 5.957 3.96599 6.371 3.24799C6.784 2.52899 7.704 2.28399 8.42 2.69899L9.096 3.08899C9.508 2.73699 9.98 2.45999 10.5 2.27399V1.49799C10.5 0.669986 11.172 -0.00201416 12 -0.00201416C12.828 -0.00201416 13.5 0.669986 13.5 1.49799V2.27399C14.021 2.45999 14.492 2.73699 14.904 3.08899L15.58 2.69899C16.296 2.28399 17.215 2.52999 17.629 3.24799C18.043 3.96599 17.797 4.88299 17.08 5.29699L16.417 5.67999C16.466 5.94599 16.5 6.21799 16.5 6.49899C16.5 6.77999 16.466 7.05099 16.417 7.31799L17.08 7.70099C17.797 8.11499 18.043 9.03199 17.629 9.74999C17.352 10.231 16.847 10.5 16.329 10.5ZM13.5 6.49999C13.5 5.67299 12.827 4.99999 12 4.99999C11.173 4.99999 10.5 5.67299 10.5 6.49999C10.5 7.32699 11.173 7.99999 12 7.99999C12.827 7.99999 13.5 7.32699 13.5 6.49999ZM1.5 13C2.328 13 3 12.328 3 11.5V8.49999C3 8.22499 3.225 7.99999 3.5 7.99999C4.328 7.99999 5 7.32799 5 6.49999C5 5.67199 4.328 4.99999 3.5 4.99999C1.57 4.99999 0 6.56999 0 8.49999V11.5C0 12.328 0.672 13 1.5 13ZM20.5 4.99999C19.672 4.99999 19 5.67199 19 6.49999C19 7.32799 19.672 7.99999 20.5 7.99999C20.775 7.99999 21 8.22499 21 8.49999V11.5C21 12.328 21.672 13 22.5 13C23.328 13 24 12.328 24 11.5V8.49999C24 6.56999 22.43 4.99999 20.5 4.99999Z" fill="white"/>
</g>
<defs>
<clipPath id="clip0_1686_15355">
<rect width="24" height="24" fill="white"/>
</clipPath>
</defs>
</svg>
