<svg width="32" height="32" viewBox="0 0 32 32" fill="none" xmlns="http://www.w3.org/2000/svg">
<g clip-path="url(#clip0_1686_15987)">
<path d="M8.66667 17.3333C13.4533 17.3333 17.3333 13.4533 17.3333 8.66667C17.3333 3.88 13.4533 0 8.66667 0C3.88 0 0 3.88 0 8.66667V14C0 15.8413 1.492 17.3333 3.33333 17.3333H8.66667ZM8.66667 14.6667C7.93067 14.6667 7.33333 14.0693 7.33333 13.3333C7.33333 12.5973 7.93067 12 8.66667 12C9.40267 12 10 12.5973 10 13.3333C10 14.0693 9.40267 14.6667 8.66667 14.6667ZM10.596 10.172C10.068 10.4613 9.64267 10.908 9.63867 10.9133C9.376 11.1907 9.02267 11.3307 8.66667 11.3307C8.33867 11.3307 8.012 11.2107 7.75467 10.9693C7.22 10.4667 7.18933 9.628 7.69067 9.09067C7.76133 9.01333 8.41333 8.328 9.308 7.836C9.69467 7.62267 10.1013 7.12267 9.97733 6.41333C9.88533 5.892 9.44 5.448 8.91867 5.356C8.512 5.28267 8.116 5.38667 7.80933 5.64533C7.50533 5.9 7.332 6.272 7.332 6.668C7.332 7.404 6.73467 8.00133 5.99867 8.00133C5.26267 8.00133 4.66533 7.404 4.66533 6.668C4.66533 5.48267 5.18667 4.36667 6.09333 3.604C7 2.84133 8.19733 2.52267 9.37867 2.73067C10.992 3.01333 12.3187 4.33867 12.6027 5.95333C12.9 7.65067 12.0933 9.34667 10.5947 10.1733L10.596 10.172ZM19.0267 15.3067C17.9427 16.3907 17.3333 17.8613 17.3333 19.3933V20.6653C17.3333 21.0333 17.632 21.332 18 21.332H19.2733C20.8053 21.332 22.276 20.7227 23.3587 19.64L30.9787 12.02C32.112 10.8867 32.3293 9.03867 31.3147 7.79733C30.148 6.37067 28.04 6.292 26.7693 7.56267L19.0267 15.3067ZM19.7987 10.764C19.9267 10.084 20 9.384 20 8.66667C20 7.50667 19.824 6.388 19.5 5.33333H25.312C25.1707 5.45067 25.0147 5.548 24.884 5.67867L19.7987 10.764ZM32 14.7707V29.1387C32 30.196 31.42 31.164 30.488 31.664C30.064 31.892 29.5987 32.0053 29.1347 32.0053C28.58 32.0053 28.0267 31.844 27.548 31.5253L22.2627 28H14.6667C10.9907 28 8 25.0093 8 21.3333V19.9667C8.22133 19.98 8.44133 20 8.66667 20C10.9107 20 12.9973 19.3387 14.7587 18.2133C14.704 18.6027 14.6667 18.9947 14.6667 19.3947V20.6667C14.6667 22.5053 16.1627 24 18 24H19.2733C21.528 24 23.6493 23.1213 25.2453 21.5267L32 14.772V14.7707Z" fill="#C666F4"/>
</g>
<defs>
<clipPath id="clip0_1686_15987">
<rect width="32" height="32" fill="white"/>
</clipPath>
</defs>
</svg>
