<svg width="24" height="24" viewBox="0 0 24 24" fill="none" xmlns="http://www.w3.org/2000/svg">
<g clip-path="url(#clip0_1686_15444)">
<path d="M14.5003 12.5C14.5003 13.881 13.3813 15 12.0003 15C10.6193 15 9.50027 13.881 9.50027 12.5C9.50027 11.119 10.6193 10 12.0003 10C13.3813 10 14.5003 11.119 14.5003 12.5ZM21.6813 11.427L19.0773 15.148C18.7033 15.682 18.0913 16.001 17.4393 16.001H6.56227C5.91027 16.001 5.29727 15.683 4.92427 15.148L2.32027 11.427C2.00427 10.975 1.38027 10.865 0.927271 11.181C0.474271 11.497 0.365271 12.121 0.681271 12.574L3.28527 16.295C4.03327 17.363 5.25827 18.001 6.56227 18.001H8.00027V23.001C8.00027 23.554 8.44827 24.001 9.00027 24.001H15.0003C15.5523 24.001 16.0003 23.554 16.0003 23.001V18.001H17.4383C18.7423 18.001 19.9673 17.363 20.7153 16.295L23.3193 12.574C23.6353 12.122 23.5263 11.498 23.0733 11.181C22.6213 10.866 21.9993 10.975 21.6813 11.427ZM9.00027 5.00002H11.0003V5.94902C11.0003 6.46502 11.6233 6.72302 11.9883 6.35802L13.7553 4.59102C14.0823 4.26402 14.0823 3.73502 13.7553 3.40802L11.9883 1.64102C11.6233 1.27602 11.0003 1.53502 11.0003 2.05002V2.99902H9.00027C8.44827 2.99902 8.00027 3.44602 8.00027 3.99902C8.00027 4.55202 8.44827 5.00002 9.00027 5.00002ZM23.3773 6.78302C23.1913 7.10002 22.8573 7.27602 22.5143 7.27602C22.3423 7.27602 22.1673 7.23202 22.0083 7.13802L21.8713 7.05702C21.4843 7.41602 21.0173 7.68002 20.4993 7.83602V7.99902C20.4993 8.55202 20.0513 8.99902 19.4993 8.99902C18.9473 8.99902 18.4993 8.55202 18.4993 7.99902V7.83602C17.9823 7.68002 17.5143 7.41602 17.1273 7.05702L16.9903 7.13802C16.8313 7.23202 16.6573 7.27602 16.4843 7.27602C16.1413 7.27602 15.8073 7.10002 15.6213 6.78302C15.3413 6.30702 15.5003 5.69402 15.9763 5.41402L16.1103 5.33502C16.0443 5.06602 15.9983 4.78902 15.9983 4.50002C15.9983 4.21102 16.0433 3.93402 16.1103 3.66502L15.9763 3.58602C15.5003 3.30602 15.3413 2.69202 15.6213 2.21702C15.9013 1.73902 16.5143 1.58102 16.9903 1.86202L17.1273 1.94302C17.5143 1.58402 17.9813 1.32002 18.4993 1.16402V1.00102C18.4993 0.448022 18.9473 0.00102158 19.4993 0.00102158C20.0513 0.00102158 20.4993 0.448022 20.4993 1.00102V1.16402C21.0163 1.32002 21.4843 1.58402 21.8713 1.94302L22.0083 1.86202C22.4843 1.58302 23.0973 1.74002 23.3773 2.21702C23.6573 2.69302 23.4983 3.30602 23.0223 3.58602L22.8883 3.66502C22.9543 3.93402 23.0003 4.21102 23.0003 4.50002C23.0003 4.78902 22.9553 5.06602 22.8883 5.33502L23.0223 5.41402C23.4983 5.69402 23.6573 6.30802 23.3773 6.78302ZM21.0003 4.50002C21.0003 3.67302 20.3273 3.00002 19.5003 3.00002C18.6733 3.00002 18.0003 3.67302 18.0003 4.50002C18.0003 5.32702 18.6733 6.00002 19.5003 6.00002C20.3273 6.00002 21.0003 5.32702 21.0003 4.50002ZM2.97127 9.00002H3.97127C4.52327 9.00002 4.97127 8.55202 4.97127 8.00002V7.00002H1.97127V8.00002C1.97127 8.55202 2.41927 9.00002 2.97127 9.00002ZM1.47127 6.00002H5.47127C6.47127 5.50002 6.97127 4.45902 6.97127 3.50002C6.97127 2.42702 6.48927 1.42802 5.64827 0.758022C4.80727 0.0900216 3.71527 -0.152978 2.64827 0.0940216C1.37327 0.389022 0.358271 1.40402 0.0642713 2.68002C-0.219729 3.91202 0.471271 5.50002 1.47127 6.00002Z" fill="white"/>
</g>
<defs>
<clipPath id="clip0_1686_15444">
<rect width="24" height="24" fill="white"/>
</clipPath>
</defs>
</svg>
