<svg width="24" height="24" viewBox="0 0 24 24" fill="none" xmlns="http://www.w3.org/2000/svg">
<g clip-path="url(#clip0_1686_15491)">
<path d="M3.10795 22.4532C-1.63213 21.8118 -0.482615 14.1931 3.41974 12.4455C5.3049 11.6011 11.2822 11.5323 13.2838 12.0549C14.0883 12.2657 15.7482 13.1057 16.2075 13.7915C16.7468 14.5981 16.1032 14.4517 15.625 14.6647C15.4053 14.7635 15.1745 14.8756 14.9804 15.0187C14.4655 15.3993 11.7005 18.1567 11.392 18.6427C10.8849 19.4439 10.8272 20.3704 11.2078 21.2326C11.2733 21.3824 12.0877 22.4532 11.5407 22.4532H3.10795Z" fill="white"/>
<path d="M8.01926 0.0676649C14.7144 -0.897706 15.5765 8.84144 9.41954 9.45728C3.21482 10.0776 2.39152 0.878798 8.01926 0.0676649Z" fill="white"/>
<path d="M20.0025 16.2582C20.1523 16.2338 20.2222 16.2426 20.3654 16.2859C20.7726 16.408 23.1604 18.7737 23.5265 19.2342C23.8372 19.6248 24.1324 19.9122 23.9393 20.4237C23.7851 20.832 21.4882 23.1445 21.03 23.5085C20.6261 23.8302 20.3698 24.0999 19.8394 23.9223C17.6669 23.1922 21.8844 20.5835 21.7967 20.083C21.3307 19.3862 19.2769 17.9282 19.2447 17.1803C19.2247 16.7098 19.541 16.3336 20.0025 16.2582Z" fill="white"/>
<path d="M16.4495 16.256C17.0575 16.145 17.6201 16.8652 17.4292 17.4644C17.2572 18.0059 14.8794 19.8567 14.9327 20.163C15.3454 20.8265 17.2295 22.1625 17.427 22.7794C17.6578 23.4996 17.0497 24.1709 16.3629 23.9601C16.1377 23.8913 13.2506 21.0384 12.981 20.6789C12.7712 20.4004 12.6359 20.2728 12.7513 19.8955C12.8201 19.6703 15.6728 16.7831 16.0323 16.5134C16.1632 16.4147 16.2775 16.2859 16.4495 16.2549V16.256Z" fill="white"/>
</g>
<defs>
<clipPath id="clip0_1686_15491">
<rect width="24" height="24" fill="white"/>
</clipPath>
</defs>
</svg>
