<svg width="24" height="24" viewBox="0 0 24 24" fill="none" xmlns="http://www.w3.org/2000/svg">
<g clip-path="url(#clip0_1686_15357)">
<path d="M14 7V0.46C14.913 0.806 15.753 1.339 16.465 2.05L19.949 5.536C20.661 6.247 21.194 7.087 21.54 8H15C14.448 8 14 7.551 14 7ZM22 10.485V19C22 21.757 19.757 24 17 24H7C4.243 24 2 21.757 2 19V5C2 2.243 4.243 0 7 0H11.515C11.678 0 11.839 0.013 12 0.024V7C12 8.654 13.346 10 15 10H21.976C21.987 10.161 22 10.322 22 10.485ZM9 18C8.994 16.692 7.006 16.693 7 18V20C7.006 21.308 8.994 21.307 9 20V18ZM13 13C12.994 11.692 11.006 11.693 11 13V20C11.006 21.308 12.994 21.307 13 20V13ZM17 16C16.994 14.692 15.005 14.693 15 16V20C15.006 21.308 16.995 21.307 17 20V16Z" fill="white"/>
</g>
<defs>
<clipPath id="clip0_1686_15357">
<rect width="24" height="24" fill="white"/>
</clipPath>
</defs>
</svg>
