<svg width="24" height="24" viewBox="0 0 24 24" fill="none" xmlns="http://www.w3.org/2000/svg">
<g clip-path="url(#clip0_1686_15461)">
<path d="M18 12C14.691 12 12 14.691 12 18C12 21.309 14.691 24 18 24C21.309 24 24 21.309 24 18C24 14.691 21.309 12 18 12ZM22 18C22 18.74 21.784 19.424 21.433 20.019L15.981 14.566C16.576 14.215 17.26 13.999 18 13.999C20.206 13.999 22 15.794 22 18ZM14 18C14 17.26 14.216 16.576 14.567 15.981L20.019 21.434C19.424 21.785 18.74 22.001 18 22.001C15.794 22.001 14 20.206 14 18ZM3 6C3 2.691 5.691 0 9 0C12.309 0 15 2.691 15 6C15 9.309 12.309 12 9 12C5.691 12 3 9.309 3 6ZM12.721 24H0V19C0 16.239 2.239 14 5 14H11.079C10.397 15.178 10 16.541 10 18C10 20.393 11.056 22.534 12.721 24Z" fill="#FF3B30"/>
</g>
<defs>
<clipPath id="clip0_1686_15461">
<rect width="24" height="24" fill="white"/>
</clipPath>
</defs>
</svg>
