<svg width="20" height="24" viewBox="0 0 20 24" fill="none" xmlns="http://www.w3.org/2000/svg">
<path d="M12 7V0.46C12.913 0.806 13.753 1.339 14.465 2.05L17.949 5.536C18.661 6.247 19.194 7.087 19.54 8H13C12.448 8 12 7.551 12 7ZM20 10.485V19C20 21.757 17.757 24 15 24H5C2.243 24 0 21.757 0 19V5C0 2.243 2.243 0 5 0H9.515C9.678 0 9.839 0.013 10 0.024V7C10 8.654 11.346 10 13 10H19.976C19.987 10.161 20 10.322 20 10.485ZM7 18C6.994 16.692 5.006 16.693 5 18V20C5.006 21.308 6.994 21.307 7 20V18ZM11 13C10.994 11.692 9.006 11.693 9 13V20C9.006 21.308 10.994 21.307 11 20V13ZM15 16C14.994 14.692 13.005 14.693 13 16V20C13.006 21.308 14.995 21.307 15 20V16Z" fill="#3CD856"/>
</svg>
