<svg width="49" height="49" viewBox="0 0 49 49" fill="none" xmlns="http://www.w3.org/2000/svg">
<circle cx="24.5" cy="24.5" r="24.5" fill="#FF8995"/>
<path d="M32.944 15.633L25 13L17.056 15.633C16.4575 15.8314 15.9367 16.2134 15.5676 16.7246C15.1985 17.2359 14.9999 17.8504 15 18.481V24.991C15 32.515 24.2 36.67 24.594 36.843L24.948 37L25.316 36.878C25.712 36.746 35 33.568 35 24.991V18.481C35.0001 17.8504 34.8015 17.2359 34.4324 16.7246C34.0633 16.2134 33.5425 15.8314 32.944 15.633ZM25.444 26.98C25.2692 27.156 25.0611 27.2955 24.832 27.3904C24.6028 27.4854 24.3571 27.5338 24.109 27.533H24.076C23.8229 27.5291 23.5732 27.474 23.342 27.3708C23.1108 27.2677 22.903 27.1188 22.731 26.933L20.425 24.533L21.868 23.151L24.112 25.491L29.293 20.31L30.707 21.724L25.444 26.98Z" fill="white"/>
</svg>
