<svg width="20" height="24" viewBox="0 0 20 24" fill="none" xmlns="http://www.w3.org/2000/svg">
<path d="M17.5957 5.8898C18.0762 6.36963 18.469 6.91286 18.7712 7.5H13C12.7245 7.5 12.5 7.27518 12.5 7V1.2288C13.0872 1.53095 13.6308 1.9236 14.1115 2.40359C14.1116 2.40366 14.1116 2.40373 14.1117 2.4038L17.5953 5.88945L17.5957 5.8898ZM7.50001 18L7.5 17.9977C7.49786 17.5327 7.31426 17.1491 7.01452 16.8876C6.72441 16.6345 6.35356 16.5193 5.99988 16.5194C5.64619 16.5195 5.27545 16.6349 4.98544 16.8879C4.68583 17.1494 4.50214 17.5329 4.5 17.9977V18L4.5 20L4.50001 20.0023C4.50214 20.4673 4.68574 20.8509 4.98548 21.1124C5.27559 21.3655 5.64644 21.4807 6.00013 21.4806C6.35381 21.4805 6.72456 21.3651 7.01456 21.1121C7.31417 20.8506 7.49786 20.4671 7.5 20.0023V20L7.50001 18ZM11.5 13L11.5 12.9977C11.4979 12.5327 11.3143 12.1491 11.0145 11.8876C10.7244 11.6345 10.3536 11.5193 9.99988 11.5194C9.64619 11.5195 9.27545 11.6349 8.98544 11.8879C8.68583 12.1494 8.50214 12.5329 8.5 12.9977V13L8.5 20L8.50001 20.0023C8.50214 20.4673 8.68575 20.8509 8.98548 21.1124C9.27559 21.3655 9.64644 21.4807 10.0001 21.4806C10.3538 21.4805 10.7246 21.3651 11.0146 21.1121C11.3142 20.8506 11.4979 20.4671 11.5 20.0023V20L11.5 13ZM15.5 16L15.5 15.9977C15.4979 15.5326 15.3141 15.149 15.0143 14.8876C14.7241 14.6345 14.3532 14.5193 13.9995 14.5194C13.6458 14.5195 13.275 14.6349 12.985 14.888C12.6853 15.1495 12.5018 15.5332 12.5 15.9981V16L12.5 20L12.5 20.0023C12.5021 20.4674 12.6859 20.851 12.9857 21.1124C13.2759 21.3655 13.6468 21.4807 14.0005 21.4806C14.3542 21.4805 14.725 21.3651 15.015 21.112C15.3147 20.8505 15.4982 20.4668 15.5 20.0019V20L15.5 16ZM19.5 10.5V19C19.5 21.4809 17.4809 23.5 15 23.5H5C2.51914 23.5 0.5 21.4809 0.5 19V5C0.5 2.51914 2.51914 0.5 5 0.5H9.5V7C9.5 8.93014 11.0699 10.5 13 10.5H19.5Z" fill="#FF7E8C" stroke="#FF7E8C"/>
</svg>
