<svg width="24" height="24" viewBox="0 0 24 24" fill="none" xmlns="http://www.w3.org/2000/svg">
<g clip-path="url(#clip0_2716_19958)">
<path d="M18 12C14.686 12 12 14.686 12 18C12 21.314 14.686 24 18 24C21.314 24 24 21.314 24 18C24 14.686 21.314 12 18 12ZM21.192 18.202L18.979 20.326C18.527 20.772 17.927 20.997 17.326 20.997C16.725 20.997 16.123 20.772 15.663 20.323L14.531 19.214C14.136 18.827 14.131 18.194 14.517 17.8C14.903 17.404 15.536 17.399 15.931 17.786L17.062 18.894C17.206 19.036 17.441 19.033 17.584 18.892L19.807 16.758C20.204 16.376 20.838 16.387 21.221 16.787C21.603 17.185 21.59 17.819 21.192 18.202ZM10 18C10 15.61 11.048 13.466 12.709 12H5C4.447 12 4 11.553 4 11C4 10.447 4.447 10 5 10H13C13.553 10 14 10.447 14 11C14 11.024 13.999 11.048 13.997 11.072C15.174 10.39 16.541 10 18 10V5C18 2.243 15.757 0 13 0H5C2.243 0 0 2.243 0 5V19C0 21.757 2.243 24 5 24H12.709C11.048 22.534 10 20.39 10 18ZM5 5H13C13.553 5 14 5.447 14 6C14 6.553 13.553 7 13 7H5C4.447 7 4 6.553 4 6C4 5.447 4.447 5 5 5ZM7 17H5C4.447 17 4 16.553 4 16C4 15.447 4.447 15 5 15H7C7.553 15 8 15.447 8 16C8 16.553 7.553 17 7 17Z" fill="#3CD856"/>
</g>
<defs>
<clipPath id="clip0_2716_19958">
<rect width="24" height="24" fill="white"/>
</clipPath>
</defs>
</svg>
