<svg width="24" height="24" viewBox="0 0 24 24" fill="none" xmlns="http://www.w3.org/2000/svg">
  <g clip-path="url(#clip0_2716_19970)">
    <g clip-path="url(#clip1_2716_19970)">
      <g clip-path="url(#clip2_2716_19970)">
        <path d="M23.3895 9.48L19.8885 3.48C18.9955 1.95 17.3415 1 15.5705 1H8.4995C6.7285 1 5.0735 1.951 4.1805 3.48L0.6795 9.48C-0.2265 11.034 -0.2265 12.965 0.6795 14.519L4.1805 20.519C5.0735 22.049 6.7275 22.999 8.4985 22.999H15.5695C17.3405 22.999 18.9955 22.048 19.8885 20.519L23.3885 14.519C24.2945 12.965 24.2955 11.034 23.3895 9.48ZM15.7555 14.292C16.1465 14.683 16.1465 15.315 15.7555 15.706C15.5605 15.901 15.3045 15.999 15.0485 15.999C14.7925 15.999 14.5365 15.901 14.3415 15.706L12.0485 13.413L9.7555 15.706C9.5605 15.901 9.3045 15.999 9.0485 15.999C8.7925 15.999 8.5365 15.901 8.3415 15.706C7.9505 15.315 7.9505 14.683 8.3415 14.292L10.6345 11.999L8.3415 9.706C7.9505 9.315 7.9505 8.683 8.3415 8.292C8.7325 7.901 9.3645 7.901 9.7555 8.292L12.0485 10.585L14.3415 8.292C14.7325 7.901 15.3645 7.901 15.7555 8.292C16.1465 8.683 16.1465 9.315 15.7555 9.706L13.4625 11.999L15.7555 14.292Z" fill="#00ffea"/>
      </g>
    </g>
  </g>
  <defs>
    <clipPath id="clip0_2716_19970">
      <rect width="24" height="24" fill="white"/>
    </clipPath>
    <clipPath id="clip1_2716_19970">
      <rect width="24" height="24" fill="white"/>
    </clipPath>
    <clipPath id="clip2_2716_19970">
      <rect width="24" height="24" fill="white"/>
    </clipPath>
  </defs>
</svg>
