<svg width="24" height="24" viewBox="0 0 24 24" fill="none" xmlns="http://www.w3.org/2000/svg">
<path d="M16.5828 5.13881C16.927 5.36922 17.3928 5.27696 17.6233 4.93274C17.8537 4.58853 17.7614 4.1227 17.4172 3.89229L16.5828 5.13881ZM20.4452 7.12446C20.2378 6.76591 19.779 6.64339 19.4204 6.8508C19.0619 7.0582 18.9393 7.517 19.1468 7.87554L20.4452 7.12446ZM18.2426 17.3122L17.6216 17.7327L18.2426 17.3122ZM5.75738 17.3122L5.13634 16.8917L5.75738 17.3122ZM17.6216 17.7327L18.0873 18.4205L19.3294 17.5795L18.8637 16.8917L17.6216 17.7327ZM5.91272 18.4205L6.37841 17.7327L5.13634 16.8917L4.67064 17.5795L5.91272 18.4205ZM12 10.75C11.0335 10.75 10.25 9.9665 10.25 9H8.75C8.75 10.7949 10.2051 12.25 12 12.25V10.75ZM13.75 9C13.75 9.9665 12.9665 10.75 12 10.75V12.25C13.7949 12.25 15.25 10.7949 15.25 9H13.75ZM12 7.25C12.9665 7.25 13.75 8.0335 13.75 9H15.25C15.25 7.20507 13.7949 5.75 12 5.75V7.25ZM12 5.75C10.2051 5.75 8.75 7.20507 8.75 9H10.25C10.25 8.0335 11.0335 7.25 12 7.25V5.75ZM12 20.25C7.44365 20.25 3.75 16.5563 3.75 12H2.25C2.25 17.3848 6.61522 21.75 12 21.75V20.25ZM20.25 12C20.25 16.5563 16.5563 20.25 12 20.25V21.75C17.3848 21.75 21.75 17.3848 21.75 12H20.25ZM12 2.25C6.61522 2.25 2.25 6.61522 2.25 12H3.75C3.75 7.44365 7.44365 3.75 12 3.75V2.25ZM12 3.75C13.697 3.75 15.2723 4.26158 16.5828 5.13881L17.4172 3.89229C15.8675 2.85496 14.0033 2.25 12 2.25V3.75ZM19.1468 7.87554C19.8483 9.08824 20.25 10.4961 20.25 12H21.75C21.75 10.2253 21.2752 8.55932 20.4452 7.12446L19.1468 7.87554ZM12 14.75C14.2527 14.75 16.3586 15.8674 17.6216 17.7327L18.8637 16.8917C17.3216 14.6143 14.7504 13.25 12 13.25V14.75ZM12 13.25C9.24962 13.25 6.67835 14.6143 5.13634 16.8917L6.37841 17.7327C7.64138 15.8674 9.74734 14.75 12 14.75V13.25Z" fill="#333333"/>
<circle cx="19" cy="6" r="4" fill="white"/>
<circle cx="19" cy="6" r="3" fill="#FF3B30"/>
</svg>
