<svg width="59" height="59" viewBox="0 0 59 59" fill="none" xmlns="http://www.w3.org/2000/svg">
<circle cx="29.5" cy="29.5" r="29.5" fill="#37D5FF"/>
<g clip-path="url(#clip0_1862_12606)">
<path d="M45.3854 43.4411L41.7196 39.7754C42.6794 38.4265 43.25 36.782 43.25 35C43.25 30.4433 39.5568 26.75 35 26.75C30.4433 26.75 26.75 30.4433 26.75 35C26.75 39.5567 30.4433 43.25 35 43.25C36.782 43.25 38.4265 42.6794 39.7754 41.7196L43.4411 45.3854C43.7093 45.6535 44.0613 45.7882 44.4133 45.7882C44.7653 45.7882 45.1173 45.6535 45.3854 45.3854C45.923 44.8477 45.923 43.9788 45.3854 43.4411ZM34.0746 39.1209C33.2483 39.1209 32.4191 38.8115 31.7866 38.1941L30.2301 36.6706C29.687 36.1385 29.6788 35.2681 30.2095 34.7264C30.7403 34.1833 31.6106 34.175 32.1538 34.7044L33.7103 36.2279C33.9083 36.4231 34.2314 36.4217 34.428 36.2279L38.1584 32.6199C38.7056 32.096 39.5774 32.1111 40.1026 32.6597C40.6293 33.207 40.6114 34.0774 40.0628 34.604L36.3461 38.1982C35.7246 38.8115 34.901 39.1209 34.0746 39.1209ZM24 35C24 28.9349 28.9349 24 35 24C37.0048 24 38.8803 24.5472 40.5 25.4891V19.875C40.5 16.0841 37.4145 13 33.625 13H19.8736C16.0828 13 13 16.0855 13 19.8764V39.125C13 42.9159 16.0855 46 19.875 46H35C28.9349 46 24 41.0651 24 35ZM26.75 19.875H33.625C34.384 19.875 35 20.4896 35 21.25C35 22.0104 34.384 22.625 33.625 22.625H26.75C25.991 22.625 25.375 22.0104 25.375 21.25C25.375 20.4896 25.991 19.875 26.75 19.875ZM21.25 36.375H19.875C19.116 36.375 18.5 35.7604 18.5 35C18.5 34.2396 19.116 33.625 19.875 33.625H21.25C22.009 33.625 22.625 34.2396 22.625 35C22.625 35.7604 22.009 36.375 21.25 36.375ZM21.25 29.5H19.875C19.116 29.5 18.5 28.8854 18.5 28.125C18.5 27.3646 19.116 26.75 19.875 26.75H21.25C22.009 26.75 22.625 27.3646 22.625 28.125C22.625 28.8854 22.009 29.5 21.25 29.5ZM21.25 22.625H19.875C19.116 22.625 18.5 22.0104 18.5 21.25C18.5 20.4896 19.116 19.875 19.875 19.875H21.25C22.009 19.875 22.625 20.4896 22.625 21.25C22.625 22.0104 22.009 22.625 21.25 22.625Z" fill="white"/>
</g>
<defs>
<clipPath id="clip0_1862_12606">
<rect width="33" height="33" fill="white" transform="translate(13 13)"/>
</clipPath>
</defs>
</svg>
