<svg width="86" height="86" viewBox="0 0 86 86" fill="none" xmlns="http://www.w3.org/2000/svg">
<rect x="2" y="2" width="82" height="82" rx="41" fill="url(#paint0_linear_1862_12542)"/>
<rect x="2" y="2" width="82" height="82" rx="41" stroke="white" stroke-width="4"/>
<g clip-path="url(#clip0_1862_12542)">
<path d="M65.4184 45.7511C65.751 46.0837 66.0508 46.7326 66.1104 47.2151C66.4081 49.679 66.3875 56.6438 66.1042 59.1304C65.983 60.1899 65.4163 60.9393 64.4287 61.3561L22.6688 61.4999C21.1124 61.4424 20.2294 60.4301 20.1021 58.9332C19.7777 55.1346 20.3506 50.8761 20.1206 47.0262C20.3609 46.0734 20.9953 45.441 21.8988 45.1084L64.4698 45.1597C64.7531 45.3548 65.1864 45.5191 65.4184 45.7511ZM38.742 47.9912C38.6126 47.8578 38.2943 47.7592 38.1075 47.7859C37.2225 47.905 33.9619 51.7857 32.8367 52.3524L32.4486 53.1779L32.6971 53.8349C33.7483 54.3482 37.1548 58.3131 37.8816 58.4179C38.7276 58.5411 39.3107 57.8635 38.7687 57.1017L34.4855 53.1758L38.6783 49.3649C39.0274 49.0179 39.0849 48.3423 38.742 47.9912ZM41.8999 58.385C42.2387 58.5986 43.1791 58.3624 43.2633 57.8512C43.4461 54.9971 44.3926 51.8679 44.5466 49.063C44.5651 48.7078 44.6514 48.1124 44.2078 47.9645C43.6842 47.8475 43.134 47.9461 42.9492 48.5025L41.6618 57.2947C41.6494 57.5288 41.7726 58.3049 41.902 58.3871L41.8999 58.385ZM47.4479 58.383C47.6923 58.537 48.5033 58.4343 48.7641 58.2187L53.462 53.8842C53.9179 53.336 53.8255 52.8678 53.3758 52.3524C52.1336 50.9315 49.9858 49.6749 48.7662 48.135C47.6533 47.5498 46.91 48.0364 47.4089 49.2314L51.7291 53.1758L47.5362 56.9867C47.1769 57.2208 47.1872 58.2146 47.452 58.3809L47.4479 58.383Z" fill="white"/>
<path d="M42.0377 15.5593C55.5319 14.2883 57.7187 33.8357 45.0047 36.1847C30.9663 38.7801 27.8309 16.8981 42.0377 15.5593Z" fill="white"/>
<path d="M58.7101 43.4251H27.5C27.6971 42.7536 28.2926 42.0145 28.7381 41.4806C30.7011 39.1255 33.4854 37.0024 36.4175 36.0332C40.3023 38.3801 44.2939 38.4397 48.4395 36.7478C49.0699 36.4911 49.3327 35.9285 50.1355 36.0661C50.5133 36.1297 52.1642 37.0434 52.6118 37.3042C54.2832 38.2836 56.2297 39.992 57.4699 41.4806C57.9155 42.0145 58.5109 42.7536 58.7081 43.4251H58.7101Z" fill="white"/>
</g>
<defs>
<linearGradient id="paint0_linear_1862_12542" x1="79.12" y1="-3.57385e-06" x2="13.115" y2="81.7" gradientUnits="userSpaceOnUse">
<stop stop-color="#2D313C"/>
<stop offset="1" stop-color="#1D1F26"/>
</linearGradient>
<clipPath id="clip0_1862_12542">
<rect width="46.3244" height="46" fill="white" transform="translate(20 15.5)"/>
</clipPath>
</defs>
</svg>
