<svg width="33" height="31" viewBox="0 0 33 31" fill="none" xmlns="http://www.w3.org/2000/svg">
<path d="M32.0942 12.035L27.2803 3.785C26.0524 1.68125 23.7782 0.375 21.343 0.375H11.6204C9.18528 0.375 6.90966 1.68262 5.68178 3.785L0.867906 12.035C-0.377844 14.1717 -0.377844 16.8269 0.867906 18.9636L5.68178 27.2136C6.90966 29.3174 9.18391 30.6236 11.619 30.6236H21.3417C23.7768 30.6236 26.0524 29.316 27.2803 27.2136L32.0928 18.9636C33.3385 16.8269 33.3399 14.1717 32.0942 12.035ZM21.5974 18.6515C22.135 19.1891 22.135 20.0581 21.5974 20.5958C21.3293 20.8639 20.9773 20.9986 20.6253 20.9986C20.2733 20.9986 19.9213 20.8639 19.6532 20.5958L16.5003 17.4429L13.3474 20.5958C13.0793 20.8639 12.7273 20.9986 12.3753 20.9986C12.0233 20.9986 11.6713 20.8639 11.4032 20.5958C10.8655 20.0581 10.8655 19.1891 11.4032 18.6515L14.556 15.4986L11.4032 12.3458C10.8655 11.8081 10.8655 10.9391 11.4032 10.4015C11.9408 9.86387 12.8098 9.86387 13.3474 10.4015L16.5003 13.5544L19.6532 10.4015C20.1908 9.86387 21.0598 9.86387 21.5974 10.4015C22.135 10.9391 22.135 11.8081 21.5974 12.3458L18.4445 15.4986L21.5974 18.6515Z" fill="white"/>
</svg>
