<svg width="22" height="22" viewBox="0 0 22 22" fill="none" xmlns="http://www.w3.org/2000/svg">
<path d="M22 21.0833C22 21.5893 21.5893 22 21.0833 22H2.75C1.23383 22 0 20.7662 0 19.25V0.916667C0 0.410667 0.410667 0 0.916667 0C1.42267 0 1.83333 0.410667 1.83333 0.916667V19.25C1.83333 19.7551 2.24492 20.1667 2.75 20.1667H21.0833C21.5893 20.1667 22 20.5773 22 21.0833ZM19.25 4.58333H15.5833C15.0773 4.58333 14.6667 4.994 14.6667 5.5C14.6667 6.006 15.0773 6.41667 15.5833 6.41667H18.8494L14.3972 10.7314C14.0516 11.0779 13.4475 11.0779 13.1019 10.7314C13.0643 10.6947 11.9662 9.91283 11.9662 9.91283C10.923 8.92925 9.14558 8.96592 8.151 9.95958L3.94717 14.0058C3.58233 14.3568 3.57133 14.9371 3.92242 15.3019C4.103 15.4889 4.34225 15.5833 4.58333 15.5833C4.8125 15.5833 5.04167 15.4981 5.21858 15.3276L9.43525 11.2686C9.78083 10.9221 10.3849 10.9221 10.7305 11.2686C10.7681 11.3053 11.8663 12.0872 11.8663 12.0872C12.9103 13.0717 14.6859 13.0368 15.6832 12.0377L20.1658 7.69267V10.9991C20.1658 11.5051 20.5764 11.9157 21.0824 11.9157C21.5884 11.9157 21.9991 11.5051 21.9991 10.9991V7.33242C21.9991 5.81625 20.7653 4.58242 19.2491 4.58242L19.25 4.58333Z" fill="#34C759"/>
</svg>
