<svg width="59" height="59" viewBox="0 0 59 59" fill="none" xmlns="http://www.w3.org/2000/svg">
<circle cx="29.5" cy="29.5" r="29.5" fill="#FF7756"/>
<g clip-path="url(#clip0_1862_12617)">
<path d="M38.4375 36.375C38.4375 37.5149 37.5149 38.4375 36.375 38.4375C35.2351 38.4375 34.3125 37.5149 34.3125 36.375C34.3125 35.2351 35.2351 34.3125 36.375 34.3125C37.5149 34.3125 38.4375 35.2351 38.4375 36.375ZM45.5971 45.5971C45.329 45.8652 44.977 46 44.625 46C44.273 46 43.921 45.8652 43.6529 45.5971L41.1476 43.0919C39.7988 44.053 38.1542 44.625 36.375 44.625C31.8265 44.625 28.125 40.9235 28.125 36.375C28.125 31.8265 31.8265 28.125 36.375 28.125C40.9235 28.125 44.625 31.8265 44.625 36.375C44.625 38.1542 44.053 39.7988 43.0919 41.1476L45.5971 43.6529C46.1348 44.1905 46.1348 45.0595 45.5971 45.5971ZM41.5189 37.5149C41.9781 36.826 41.9781 35.924 41.5189 35.2337C40.6499 33.9289 39.0164 32.2486 36.375 32.2486C33.6663 32.2486 32.019 34.0141 31.1679 35.33C30.7636 35.9543 30.7636 36.793 31.1679 37.4172C32.0204 38.7331 33.669 40.4986 36.375 40.4986C39.1264 40.4986 41.1229 38.1089 41.5189 37.5135V37.5149ZM30.875 24H39.8675C39.3904 22.7446 38.6575 21.5896 37.6799 20.612L32.8894 15.8187C31.9104 14.8411 30.7554 14.1083 29.5 13.6325V22.625C29.5 23.3826 30.116 24 30.875 24ZM25.375 36.375C25.375 32.2362 27.6754 28.6269 31.062 26.75H30.875C28.6007 26.75 26.75 24.8993 26.75 22.625V13.033C26.5286 13.0179 26.3073 13 26.0831 13H19.875C16.0841 13 13 16.0841 13 19.875V39.125C13 42.9159 16.0841 46 19.875 46H31.062C27.6754 44.1231 25.375 40.5138 25.375 36.375Z" fill="white"/>
</g>
<defs>
<clipPath id="clip0_1862_12617">
<rect width="33" height="33" fill="white" transform="translate(13 13)"/>
</clipPath>
</defs>
</svg>
